<svg width="24" height="24" viewBox="0 0 24 24" fill="none" xmlns="http://www.w3.org/2000/svg">
<path d="M21.6907 4.8866C21.5876 3.54639 20.5567 2.41237 19.1134 2.30928C17.0515 2.10309 14.1649 2 12 2C9.83505 2 6.94845 2.10309 4.8866 2.30928C4.16495 2.30928 3.54639 2.61856 3.13402 3.13402C2.72165 3.64948 2.41237 4.16495 2.30928 4.8866C2.10309 6.94845 2 9.83505 2 12C2 14.1649 2.20619 17.0515 2.30928 19.1134C2.41237 20.4536 3.4433 21.5876 4.8866 21.6907C6.94845 21.8969 9.83505 22 12 22C14.1649 22 17.0515 21.7938 19.1134 21.6907C20.4536 21.5876 21.5876 20.5567 21.6907 19.1134C21.8969 17.0515 22 14.1649 22 12C22 9.83505 21.8969 6.94845 21.6907 4.8866ZM14.8866 13.2371L11.4845 16.6392C11.2783 16.7423 11.1753 16.8454 10.9691 16.8454C10.7629 16.8454 10.5567 16.7423 10.4536 16.6392C10.1443 16.3299 10.1443 15.8144 10.4536 15.5052L13.8557 12.1031C13.9588 12 13.9588 11.7938 13.8557 11.6907L10.4536 8.28866C10.1443 7.97938 10.1443 7.46392 10.4536 7.15464C10.7629 6.84536 11.2783 6.84536 11.5876 7.15464L14.9897 10.5567C15.6082 11.3814 15.6082 12.5155 14.8866 13.2371Z" fill="#030D45"/>
</svg>
