<svg width="24" height="24" viewBox="0 0 24 24" fill="none" xmlns="http://www.w3.org/2000/svg">
<path d="M2.30928 19.1134C2.41237 20.4536 3.4433 21.5876 4.8866 21.6907C6.94845 21.8969 9.83505 22 12 22C14.1649 22 17.0515 21.8969 19.1134 21.6907C19.8351 21.6907 20.4536 21.3814 20.866 20.866C21.2784 20.3505 21.5876 19.8351 21.6907 19.1134C21.8969 17.0515 22 14.1649 22 12C22 9.83505 21.7938 6.94845 21.6907 4.8866C21.5876 3.54639 20.5567 2.41237 19.1134 2.30928C17.0515 2.10309 14.1649 2 12 2C9.83505 2 6.94845 2.20619 4.8866 2.30928C3.54639 2.41237 2.41237 3.4433 2.30928 4.8866C2.10309 6.94846 2 9.83505 2 12C2 14.165 2.10309 17.0515 2.30928 19.1134ZM7.05155 12.0347L10.7629 7.36083C10.866 7.15464 11.0722 7.05155 11.3814 7.05155C11.5876 7.05155 11.6907 7.15464 11.8969 7.25773C12.2062 7.56701 12.3093 7.97938 12 8.28866L9.52577 11.1753L16.1237 11.1753C16.5361 11.1753 16.9485 11.4845 16.9485 12C16.9485 12.5155 16.6392 12.8247 16.1237 12.8247L9.62887 12.8247L12.1031 15.7113C12.4124 16.0206 12.3093 16.5361 12 16.7423C11.6907 17.0515 11.1753 16.9485 10.9691 16.6392L7.05155 12.0347Z" fill="#030D45"/>
</svg>
