<svg width="24" height="24" viewBox="0 0 24 24" fill="none" xmlns="http://www.w3.org/2000/svg">
<path fill-rule="evenodd" clip-rule="evenodd" d="M5.25 9C5.25 5.27208 8.27208 2.25 12 2.25C15.7279 2.25 18.75 5.27208 18.75 9V16C18.75 16.4142 18.4142 16.75 18 16.75C17.5858 16.75 17.25 16.4142 17.25 16V9C17.25 6.1005 14.8995 3.75 12 3.75C9.10051 3.75 6.75 6.10051 6.75 9V17C6.75 18.7949 8.20507 20.25 10 20.25C11.7949 20.25 13.25 18.7949 13.25 17V10C13.25 9.30964 12.6904 8.75 12 8.75C11.3096 8.75 10.75 9.30964 10.75 10V16C10.75 16.4142 10.4142 16.75 10 16.75C9.58579 16.75 9.25 16.4142 9.25 16V10C9.25 8.48122 10.4812 7.25 12 7.25C13.5188 7.25 14.75 8.48122 14.75 10V17C14.75 19.6234 12.6234 21.75 10 21.75C7.37665 21.75 5.25 19.6234 5.25 17V9Z" fill="#030D45" stroke="#030D45" stroke-linecap="round" stroke-linejoin="round"/>
</svg>
