<svg width="24" height="24" viewBox="0 0 24 24" fill="none" xmlns="http://www.w3.org/2000/svg">
<path d="M21.9329 11.6907C21.8306 9.42268 21.4218 6.43299 21.1151 4.37113C20.9107 3.03093 19.7862 2 18.3552 2H5.67991C4.24884 2 3.12442 3.03093 2.91998 4.37113C2.61332 6.53608 2.30666 9.42268 2.10222 11.6907C2 13.8557 2 16.8454 2 19.0103C2 20.4536 3.12442 21.5876 4.55549 21.6907C6.70211 21.8969 9.66648 22 11.9153 22C14.1642 22 17.1285 21.7938 19.2751 21.6907C20.7062 21.5876 21.8306 20.4536 21.8306 19.0103C22.0351 16.8454 22.0351 13.8557 21.9329 11.6907ZM12.0175 11.7938C9.35982 11.7938 7.11099 9.62887 7.11099 6.84536C7.11099 6.43299 7.41765 6.02062 7.92875 6.02062C8.43985 6.02062 8.74651 6.43299 8.74651 6.84536C8.74651 8.70103 10.2798 10.1443 12.0175 10.1443C13.7553 10.1443 15.2886 8.59794 15.2886 6.84536C15.2886 6.43299 15.5952 6.02062 16.1063 6.02062C16.6174 6.02062 16.9241 6.3299 16.9241 6.84536C16.9241 9.52577 14.6753 11.7938 12.0175 11.7938Z" fill="#030D45"/>
</svg>
