<svg width="24" height="24" viewBox="0 0 24 24" fill="none" xmlns="http://www.w3.org/2000/svg">
<path d="M21.6939 8.96571C21.5918 7.62857 20.4694 6.6 19.1429 6.49714L18.2245 6.39429C17.8163 6.39429 17.4082 6.18857 17.2041 5.77714L16.2857 4.33714C15.7755 3.51429 14.8571 3 13.9388 3H10.0612C9.04082 3 8.22449 3.51429 7.71429 4.33714L6.79592 5.77714C6.59184 6.08571 6.18367 6.29143 5.77551 6.39429L4.85714 6.49714C3.53061 6.6 2.5102 7.62857 2.30612 8.96571C2.20408 10.3029 2 12.1543 2 13.5943C2 15.0343 2.20408 16.8857 2.30612 18.2229C2.40816 19.56 3.53061 20.5886 4.85714 20.6914C6.89796 20.7943 9.7551 21 12 21C14.2449 21 17.102 20.7943 19.1429 20.6914C20.4694 20.5886 21.5918 19.56 21.6939 18.2229C21.7959 16.8857 22 15.0343 22 13.5943C22 12.1543 21.7959 10.2 21.6939 8.96571ZM12 16.9886C9.85714 16.9886 8.12245 15.24 8.12245 13.08C8.12245 10.92 9.85714 9.17143 12 9.17143C14.1429 9.17143 15.8776 10.92 15.8776 13.08C15.8776 15.24 14.1429 16.9886 12 16.9886Z" fill="#030D45"/>
</svg>
