<svg width="24" height="24" viewBox="0 0 24 24" fill="none" xmlns="http://www.w3.org/2000/svg">
<path d="M9.04082 2.50503C8.22449 2.30301 7.20408 2.10099 6.38776 2.10099C5.57143 2.10099 4.55102 2.30301 3.73469 2.50503C3.02041 2.60604 2.5102 3.2121 2.40816 3.91917C2.30612 4.72725 2 6.34341 2 7.45452C2 8.56563 2.20408 9.97978 2.30612 10.9899C2.40816 11.6969 2.91837 12.303 3.63265 12.404C4.34694 12.606 5.46939 12.707 6.28571 12.707C7.10204 12.707 8.12245 12.505 8.93878 12.404C9.65306 12.303 10.1633 11.6969 10.2653 10.9899C10.4694 9.97978 10.5714 8.56563 10.5714 7.45452C10.5714 6.34341 10.3673 4.72725 10.2653 3.91917C10.2653 3.2121 9.7551 2.60604 9.04082 2.50503Z" fill="#030D45"/>
<path d="M20.2653 11.5958C19.551 11.3938 18.4286 11.2928 17.6123 11.2928C16.7959 11.2928 15.7755 11.4948 14.9592 11.5958C14.2449 11.6968 13.7347 12.3029 13.6327 13.0099C13.4286 14.02 13.3265 15.4342 13.3265 16.5453C13.3265 17.6564 13.5306 19.0705 13.6327 20.0806C13.7347 20.7877 14.2449 21.3938 14.9592 21.4948C15.6735 21.6968 16.7959 21.7978 17.6123 21.7978C18.4286 21.7978 19.449 21.5958 20.2653 21.4948C20.9796 21.3938 21.4898 20.7877 21.5918 20.0806C21.7959 19.0705 21.898 17.6564 21.898 16.5453C21.898 15.4342 21.7959 14.02 21.5918 13.0099C21.4898 12.3029 20.9796 11.6968 20.2653 11.5958Z" fill="#030D45"/>
<path d="M9.14286 15.6362C8.32653 15.4342 7.30612 15.3332 6.38776 15.3332C5.46939 15.3332 4.44898 15.5352 3.63265 15.6362C3.02041 15.7372 2.5102 16.2423 2.30612 16.8483C2.10204 17.5554 2 18.1614 2 18.6665C2 19.1715 2.10204 19.6766 2.30612 20.4847C2.5102 21.0907 3.02041 21.4948 3.63265 21.6968C4.44898 21.8988 5.46939 21.9998 6.38776 21.9998C7.30612 21.9998 8.32653 21.7978 9.14286 21.6968C9.7551 21.5958 10.2653 21.0907 10.4694 20.4847C10.6735 19.7776 10.7755 19.1715 10.7755 18.6665C10.7755 18.1614 10.6735 17.6564 10.4694 16.8483C10.2653 16.1412 9.7551 15.7372 9.14286 15.6362Z" fill="#030D45"/>
<path d="M14.8571 8.36351C15.6735 8.56553 16.6939 8.66654 17.6122 8.66654C18.5306 8.66654 19.551 8.46452 20.3673 8.36351C20.9796 8.2625 21.4898 7.75745 21.6939 7.15139C21.898 6.44432 22 5.83826 22 5.33321C22 4.82816 21.898 4.32311 21.6939 3.51503C21.4898 2.90897 20.9796 2.50493 20.3673 2.30291C19.551 2.10089 18.5306 1.99988 17.6122 1.99988C16.6939 1.99988 15.6735 2.2019 14.8571 2.30291C14.2449 2.40392 13.7347 2.90897 13.5306 3.51503C13.3265 4.2221 13.2245 4.82816 13.2245 5.33321C13.2245 5.83826 13.3265 6.34331 13.5306 7.15139C13.7347 7.85846 14.2449 8.2625 14.8571 8.36351Z" fill="#030D45"/>
</svg>
