<svg width="24" height="24" viewBox="0 0 24 24" fill="none" xmlns="http://www.w3.org/2000/svg">
<path d="M19.6613 6.43299C19.5575 5.09278 18.5204 4.06186 17.1721 3.85567C16.6535 3.85567 16.1349 3.75258 15.6163 3.75258L15.0977 2.82474C14.7866 2.30928 14.1643 2 13.542 2H10.5342C9.91187 2 9.39328 2.30928 8.97841 2.82474L8.35611 3.75258C7.83753 3.75258 7.31894 3.85567 6.80036 3.85567C5.45204 3.95876 4.41487 5.09278 4.31115 6.43299C4.10372 8.39175 4 11.2783 4 13.3402C4 15.4021 4.20743 17.6701 4.31115 19.2165C4.41487 20.5567 5.45204 21.5876 6.80036 21.6907C8.2524 21.7938 10.4305 22 11.9862 22C13.542 22 15.72 21.7938 17.1721 21.6907C18.5204 21.5876 19.5575 20.5567 19.6613 19.2165C19.765 17.6701 19.9724 15.299 19.9724 13.3402C20.0761 11.2783 19.8687 8.39175 19.6613 6.43299ZM9.497 4.7835C9.60072 4.7835 9.60072 4.7835 9.497 4.7835L10.223 3.54639C10.223 3.4433 10.3267 3.4433 10.4305 3.4433H13.4382C13.542 3.4433 13.542 3.4433 13.6457 3.54639L14.3717 4.7835V4.8866C14.4754 4.98969 14.3717 5.19588 14.3717 5.29897C14.3717 5.40206 14.268 5.40206 14.1643 5.40206H9.80815C9.70443 5.40206 9.70443 5.40206 9.60072 5.29897C9.497 5.09278 9.497 4.98969 9.497 4.7835ZM14.5791 14.5773C14.8903 14.8866 14.8903 15.4021 14.5791 15.7113C14.3717 15.8144 14.268 15.9175 14.0605 15.9175C13.8531 15.9175 13.6457 15.8144 13.542 15.7113L11.9862 14.1649L10.4305 15.7113C10.223 15.8144 10.1193 15.9175 9.91187 15.9175C9.70443 15.9175 9.497 15.8144 9.39328 15.7113C9.08213 15.4021 9.08213 14.8866 9.39328 14.5773L10.949 13.0309L9.39328 11.4845C9.08213 11.1753 9.08213 10.6598 9.39328 10.3505C9.70443 10.0412 10.223 10.0412 10.5342 10.3505L12.0899 11.8969L13.6457 10.3505C13.9568 10.0412 14.4754 10.0412 14.7866 10.3505C15.0977 10.6598 15.0977 11.1753 14.7866 11.4845L13.1271 13.0309L14.5791 14.5773Z" fill="#030D45"/>
</svg>
