<svg width="24" height="24" viewBox="0 0 24 24" fill="none" xmlns="http://www.w3.org/2000/svg">
<path d="M12 2.00006C6.4898 2.00006 2 6.48986 2 12.0001C2 17.5103 6.4898 22.0001 12 22.0001C17.5102 22.0001 22 17.5103 22 12.0001C22 6.48986 17.5102 2.00006 12 2.00006ZM13.0204 12.0001L9.55102 15.5715C9.34694 15.6735 9.2449 15.7756 9.04082 15.7756C8.83674 15.7756 8.63265 15.6735 8.53061 15.5715C8.22449 15.2654 8.22449 14.7552 8.53061 14.449L11.3878 11.5919V6.89802C11.3878 6.48986 11.6939 6.08169 12.2041 6.08169C12.7143 6.08169 13.0204 6.38782 13.0204 6.89802V12.0001Z" fill="#030D45"/>
</svg>
