<svg width="24" height="24" viewBox="0 0 24 24" fill="none" xmlns="http://www.w3.org/2000/svg">
<path d="M16.9989 11.2858V19.1429C16.9989 20.6735 15.7637 22.0001 14.1168 22.0001H5.88213C4.33813 22.0001 3 20.7756 3 19.1429V7.91843C3 6.38782 4.2352 5.06129 5.88213 5.06129H10.72C11.4405 5.06129 12.1611 5.36741 12.7787 5.87761L16.1755 9.24496C16.6901 9.8572 16.9989 10.5715 16.9989 11.2858Z" fill="#030D45"/>
<path d="M19.2635 17.9184C18.8517 17.9184 18.44 17.6123 18.44 17.1021V9.75516C18.44 9.44904 18.3371 9.14292 18.0283 8.8368L13.0875 3.93884C12.8816 3.73475 12.4699 3.53067 12.1611 3.53067H7.9408C7.52907 3.63271 7.11733 3.22455 7.11733 2.81639C7.11733 2.40822 7.52907 2.00006 7.9408 2.00006H12.264C12.9845 2.00006 13.7051 2.30618 14.2197 2.81639L19.1605 7.71435C19.6752 8.22455 19.984 8.93884 19.984 9.65312V17.1021C20.0869 17.5103 19.6752 17.9184 19.2635 17.9184Z" fill="#030D45"/>
</svg>
