<svg width="24" height="24" viewBox="0 0 24 24" fill="none" xmlns="http://www.w3.org/2000/svg">
<path fill-rule="evenodd" clip-rule="evenodd" d="M2.2253 15.6208C1.9249 15.3204 1.9249 14.8334 2.2253 14.533L8.37915 8.37915C8.67955 8.07874 9.1666 8.07874 9.46701 8.37915C9.76741 8.67955 9.76741 9.1666 9.46701 9.467L4.62632 14.3077L15.0769 14.3077C18.0508 14.3077 20.4615 11.8969 20.4615 8.92307L20.4615 2.76923C20.4615 2.34439 20.8059 2 21.2308 2C21.6556 2 22 2.34439 22 2.76923L22 8.92307C22 12.7466 18.9004 15.8462 15.0769 15.8462L4.62632 15.8462L9.46701 20.6868C9.76741 20.9872 9.76741 21.4743 9.46701 21.7747C9.1666 22.0751 8.67955 22.0751 8.37915 21.7747L2.2253 15.6208Z" fill="#030D45"/>
</svg>
