<svg width="24" height="24" viewBox="0 0 24 24" fill="none" xmlns="http://www.w3.org/2000/svg">
<path fill-rule="evenodd" clip-rule="evenodd" d="M21.7747 8.37915C22.0751 8.67955 22.0751 9.1666 21.7747 9.46701L15.6209 15.6209C15.3204 15.9213 14.8334 15.9213 14.533 15.6209C14.2326 15.3205 14.2326 14.8334 14.533 14.533L19.3737 9.69231L8.92308 9.69231C5.94924 9.69231 3.53846 12.1031 3.53846 15.0769L3.53846 21.2308C3.53846 21.6556 3.19406 22 2.76923 22C2.3444 22 2 21.6556 2 21.2308L2 15.0769C2 11.2534 5.09957 8.15385 8.92308 8.15385L19.3737 8.15385L14.533 3.31316C14.2326 3.01276 14.2326 2.52571 14.533 2.2253C14.8334 1.9249 15.3204 1.9249 15.6209 2.2253L21.7747 8.37915Z" fill="#030D45"/>
</svg>
