<svg width="24" height="24" viewBox="0 0 24 24" fill="none" xmlns="http://www.w3.org/2000/svg">
<path fill-rule="evenodd" clip-rule="evenodd" d="M8.37915 2.2253C8.67955 1.9249 9.1666 1.9249 9.46701 2.2253L15.6209 8.37915C15.9213 8.67955 15.9213 9.1666 15.6209 9.46701C15.3205 9.76741 14.8334 9.76741 14.533 9.46701L9.69231 4.62632L9.69231 15.0769C9.69231 18.0508 12.1031 20.4615 15.0769 20.4615H21.2308C21.6556 20.4615 22 20.8059 22 21.2308C22 21.6556 21.6556 22 21.2308 22H15.0769C11.2534 22 8.15385 18.9004 8.15385 15.0769L8.15385 4.62632L3.31316 9.46701C3.01276 9.76741 2.52571 9.76741 2.2253 9.46701C1.9249 9.1666 1.9249 8.67955 2.2253 8.37915L8.37915 2.2253Z" fill="#030D45"/>
</svg>
