<svg width="24" height="24" viewBox="0 0 24 24" fill="none" xmlns="http://www.w3.org/2000/svg">
<path d="M21.6939 10.8776C21.5918 9.8572 20.8776 8.93884 19.9592 8.63271C19.9592 8.32659 19.9592 7.91843 19.8571 7.51027C19.7551 6.48986 18.9388 5.57149 17.9184 5.36741C17.9184 5.16333 17.9184 4.8572 17.8163 4.55108C17.7143 3.22455 16.5918 2.20414 15.2653 2.1021C14.3469 2.1021 13.0204 2.00006 12 2.00006C10.9796 2.00006 9.65306 2.1021 8.73469 2.1021C7.40816 2.20414 6.28572 3.22455 6.18367 4.55108C6.18367 4.8572 6.18367 5.06129 6.08163 5.36741C5.06122 5.67353 4.2449 6.48986 4.14286 7.51027C4.14286 7.91843 4.04082 8.32659 4.04082 8.63271C3.12245 8.93884 2.5102 9.8572 2.30612 10.8776C2.20408 12.1021 2 13.7348 2 15.0613C2 16.3878 2.20408 18.0205 2.30612 19.245C2.40816 20.5715 3.53061 21.5919 4.85714 21.6939C6.89796 21.796 9.7551 22.0001 12 22.0001C14.2449 22.0001 17.102 21.796 19.1429 21.6939C20.4694 21.5919 21.5918 20.5715 21.6939 19.245C21.7959 18.0205 22 16.3878 22 15.0613C22 13.7348 21.7959 12.1021 21.6939 10.8776ZM8.83674 3.73476C9.7551 3.73476 10.9796 3.63271 12 3.63271C13.0204 3.63271 14.2449 3.73476 15.1633 3.73476C15.7755 3.73476 16.1837 4.24496 16.2857 4.75516C16.2857 4.95924 16.2857 5.06129 16.2857 5.26537C14.9592 5.26537 13.3265 5.16333 12 5.16333C10.6735 5.16333 9.04082 5.16333 7.71429 5.26537C7.71429 5.06129 7.71429 4.95924 7.71429 4.75516C7.81633 4.14292 8.22449 3.73476 8.83674 3.73476ZM14.551 14.6531L11.7959 16.6939C11.6939 16.796 11.4898 16.898 11.2857 16.898C11.0816 16.898 10.9796 16.898 10.7755 16.6939L9.44898 15.6735C9.14286 15.4695 9.04082 14.9592 9.34694 14.6531C9.65306 14.347 10.0612 14.245 10.3673 14.5511L11.2857 15.2654L13.5306 13.5307C13.8367 13.3266 14.3469 13.3266 14.551 13.6327C14.7551 13.9388 14.8571 14.347 14.551 14.6531ZM12 8.12251C10.0612 8.12251 7.61225 8.22455 5.67347 8.32659C5.67347 8.12251 5.67347 7.91843 5.77551 7.61231C5.87755 7.1021 6.28572 6.69394 6.89796 6.69394C8.42857 6.5919 10.4694 6.5919 12.102 6.5919C13.7347 6.5919 15.7755 6.69394 17.3061 6.69394C17.9184 6.69394 18.3265 7.1021 18.4286 7.61231C18.4286 7.81639 18.5306 8.12251 18.5306 8.32659C16.3878 8.32659 13.9388 8.12251 12 8.12251Z" fill="#030D45"/>
</svg>
