<svg width="24" height="24" viewBox="0 0 24 24" fill="none" xmlns="http://www.w3.org/2000/svg">
<path d="M12 2.00006C6.4898 2.00006 2 6.48986 2 12.0001C2 17.5103 6.4898 22.0001 12 22.0001C17.5102 22.0001 22 17.5103 22 12.0001C22 6.48986 17.5102 2.00006 12 2.00006ZM8.93878 9.95925C8.42857 9.95925 7.91837 9.44904 7.91837 8.93884C7.91837 8.42863 8.42857 7.91843 8.93878 7.91843C9.44898 7.91843 9.95918 8.42863 9.95918 8.93884C9.95918 9.44904 9.44898 9.95925 8.93878 9.95925ZM12 17.1021C10.8776 17.1021 9.95918 16.1837 9.95918 15.0613C9.95918 13.9388 10.8776 13.0205 12 13.0205C13.1224 13.0205 14.0408 13.9388 14.0408 15.0613C14.0408 16.1837 13.1224 17.1021 12 17.1021ZM15.0612 9.95925C14.551 9.95925 14.0408 9.44904 14.0408 8.93884C14.0408 8.42863 14.551 7.91843 15.0612 7.91843C15.5714 7.91843 16.0816 8.42863 16.0816 8.93884C16.0816 9.44904 15.5714 9.95925 15.0612 9.95925Z" fill="#030D45"/>
</svg>
