<svg width="24" height="24" viewBox="0 0 24 24" fill="none" xmlns="http://www.w3.org/2000/svg">
<path d="M12 2C6.4898 2 2 6.4898 2 12C2 17.5102 6.4898 22 12 22C17.5102 22 22 17.5102 22 12C22 6.4898 17.5102 2 12 2ZM8.93878 7.91837C9.44898 7.91837 9.95918 8.42857 9.95918 8.93878C9.95918 9.44898 9.44898 9.95918 8.93878 9.95918C8.42857 9.95918 7.91837 9.44898 7.91837 8.93878C7.91837 8.42857 8.42857 7.91837 8.93878 7.91837ZM15.5714 15.6735C14.449 16.4898 13.5306 16.898 12 16.898C10.4694 16.898 9.65306 16.5918 8.42857 15.6735C8.12245 15.4694 8.02041 14.9592 8.32653 14.6531C8.63265 14.3469 9.04082 14.2449 9.34694 14.551C10.2653 15.1633 10.8776 15.3673 11.898 15.3673C12.9184 15.3673 13.6327 15.1633 14.449 14.551C14.7551 14.3469 15.2653 14.3469 15.4694 14.6531C15.6735 14.9592 15.8776 15.3673 15.5714 15.6735ZM15.0612 9.95918C14.551 9.95918 14.0408 9.44898 14.0408 8.93878C14.0408 8.42857 14.551 7.91837 15.0612 7.91837C15.5714 7.91837 16.0816 8.42857 16.0816 8.93878C16.0816 9.44898 15.5714 9.95918 15.0612 9.95918Z" fill="#030D45"/>
</svg>
