<svg width="24" height="24" viewBox="0 0 24 24" fill="none" xmlns="http://www.w3.org/2000/svg">
<path d="M12 2.00006C6.4898 2.00006 2 6.48986 2 12.0001C2 17.5103 6.4898 22.0001 12 22.0001C17.5102 22.0001 22 17.5103 22 12.0001C22 6.48986 17.5102 2.00006 12 2.00006ZM8.93878 7.91843C9.44898 7.91843 9.95918 8.42863 9.95918 8.93884C9.95918 9.44904 9.44898 9.95925 8.93878 9.95925C8.42857 9.95925 7.91837 9.44904 7.91837 8.93884C7.91837 8.42863 8.42857 7.91843 8.93878 7.91843ZM15.6735 16.5919C15.5714 16.796 15.2653 16.898 15.0612 16.898C14.8571 16.898 14.7551 16.898 14.551 16.6939C13.6327 16.0817 13.0204 15.8776 12 15.8776C10.9796 15.8776 10.2653 16.0817 9.44898 16.6939C9.14286 16.898 8.63265 16.898 8.42857 16.5919C8.22449 16.2858 8.22449 15.7756 8.53061 15.5715C9.65306 14.7552 10.5714 14.347 12.102 14.347C13.6327 14.347 14.449 14.6531 15.6735 15.5715C15.8776 15.7756 15.8776 16.1837 15.6735 16.5919ZM15.0612 9.95925C14.551 9.95925 14.0408 9.44904 14.0408 8.93884C14.0408 8.42863 14.551 7.91843 15.0612 7.91843C15.5714 7.91843 16.0816 8.42863 16.0816 8.93884C16.0816 9.44904 15.5714 9.95925 15.0612 9.95925Z" fill="#030D45"/>
</svg>
