<svg width="24" height="24" viewBox="0 0 24 24" fill="none" xmlns="http://www.w3.org/2000/svg">
<path d="M21.8361 15.1374C21.5278 16.7763 20.7056 18.3127 19.4722 19.4394C18.2389 20.6685 16.8 21.3855 15.1556 21.7952C14.6417 21.8976 14.025 22.0001 13.5111 22.0001C12.3806 22.0001 11.3528 21.7952 10.325 21.3855C8.78333 20.7709 7.44722 19.6442 6.52222 18.3127C5.80278 17.2884 5.28889 16.0593 5.18611 14.7277C5.08333 14.2156 5.28889 13.8059 5.59722 13.3962C5.80278 12.9864 6.31667 12.7816 6.83056 12.7816H11.7639C12.2778 12.7816 12.6889 12.3719 12.6889 11.8597V6.8408C12.6889 6.32866 12.8944 5.81652 13.3056 5.50924C13.6139 5.20196 14.1278 4.9971 14.6417 5.09953C15.875 5.30438 17.1083 5.81652 18.2389 6.43109C19.6778 7.35293 20.7056 8.68449 21.3222 10.2209C22.0417 11.7573 22.1444 13.4986 21.8361 15.1374Z" fill="#030D45"/>
<path d="M10.7361 3.76797V9.50391C10.7361 10.1185 10.2222 10.6306 9.60556 10.6306H3.74722C3.23333 10.6306 2.71944 10.4258 2.41111 10.016C2.10278 9.70877 2 9.19663 2 8.78692C2.20556 7.04565 3.02778 5.50924 4.26111 4.28011C5.49445 3.05098 7.03611 2.23156 8.78333 2.02671C9.19445 1.92428 9.70833 2.12913 10.1194 2.43642C10.4278 2.7437 10.7361 3.25584 10.7361 3.76797Z" fill="#030D45"/>
</svg>
