<svg width="24" height="24" viewBox="0 0 24 24" fill="none" xmlns="http://www.w3.org/2000/svg">
<path d="M15.8513 11.6882C16.0596 11.7921 16.372 11.7921 16.6845 11.7921C18.5591 11.7921 20.1213 10.2337 20.1213 8.36353C20.1213 6.49341 18.5591 4.93496 16.6845 4.93496C16.5803 4.93496 16.5803 4.93496 16.4762 4.93496C17.1011 5.76613 17.4135 6.80509 17.4135 7.94795C17.4135 9.2986 16.8928 10.6492 15.8513 11.6882Z" fill="#030D45"/>
<path d="M18.0383 13.1429H17.3093C18.6632 14.1819 19.4964 15.8442 19.4964 17.7143C19.4964 18.1299 19.3922 18.5455 19.2881 18.9611C20.3295 18.7533 20.9544 18.5455 21.371 18.3377C21.7876 18.1299 21.9959 17.6104 21.9959 17.091C22.1 14.9091 20.2254 13.1429 18.0383 13.1429Z" fill="#030D45"/>
<path d="M7.31142 11.7923C7.62386 11.7923 7.83215 11.7923 8.14458 11.6884C7.20728 10.6494 6.58241 9.40265 6.58241 7.84421C6.58241 6.70135 6.89484 5.66239 7.51971 4.83122C7.51971 4.83122 7.41557 4.83122 7.31142 4.83122C5.43681 4.83122 3.87463 6.38966 3.87463 8.25979C3.87463 10.1299 5.33267 11.7923 7.31142 11.7923Z" fill="#030D45"/>
<path d="M6.58238 13.1429H5.95751C3.77047 13.1429 2 14.9091 2 17.091C2 17.6104 2.20829 18.1299 2.62487 18.3377C3.04145 18.5455 3.66632 18.8572 4.70777 18.9611C4.60363 18.5455 4.49948 18.1299 4.49948 17.7143C4.49948 15.9481 5.2285 14.2858 6.58238 13.1429Z" fill="#030D45"/>
<path d="M9.60264 10.8571C10.2275 11.3766 11.0607 11.6883 11.998 11.6883C12.9353 11.6883 13.7684 11.3766 14.3933 10.8571C15.3306 10.1299 15.8513 9.09091 15.8513 7.84416C15.8513 6.90909 15.5389 5.97403 14.914 5.35065C14.185 4.51948 13.1436 4 11.998 4C10.8524 4 9.70679 4.51948 9.08192 5.35065C8.45705 5.97403 8.04047 6.90909 8.04047 7.84416C8.04047 9.09091 8.66534 10.1299 9.60264 10.8571Z" fill="#030D45"/>
<path d="M14.0807 13.3506C13.8724 13.3506 13.6642 13.3506 13.4559 13.3506H10.3315C10.1232 13.3506 9.91493 13.3506 9.70664 13.3506C7.51959 13.6623 5.85327 15.5325 5.85327 17.7143C5.85327 18.3377 6.16571 18.8571 6.58229 19.0649C7.3113 19.4805 8.76933 20 11.7895 20C14.8097 20 16.2678 19.4805 16.9968 19.0649C17.5175 18.7532 17.7258 18.2338 17.7258 17.7143C18.0382 15.5325 16.2678 13.6623 14.0807 13.3506Z" fill="#030D45"/>
</svg>
