<svg width="24" height="24" viewBox="0 0 24 24" fill="none" xmlns="http://www.w3.org/2000/svg">
<path d="M21.6907 4.88654C21.5876 3.54633 20.5567 2.41231 19.1134 2.30922C17.0515 2.10303 14.1649 1.99994 12 1.99994C9.83505 1.99994 6.94845 2.10303 4.8866 2.30922C3.4433 2.41231 2.41237 3.44324 2.30928 4.88654C2.10309 6.94839 2 9.83499 2 11.9999C2 14.1649 2.20619 17.0515 2.30928 19.1133C2.41237 20.4535 3.4433 21.5876 4.8866 21.6907C6.94845 21.8968 9.83505 21.9999 12 21.9999C14.1649 21.9999 17.0515 21.7938 19.1134 21.6907C20.4536 21.5876 21.5876 20.5566 21.6907 19.1133C21.8969 17.0515 22 14.1649 22 11.9999C22 9.83499 21.8969 6.94839 21.6907 4.88654ZM7.87629 6.8453C8.39175 6.8453 8.90722 7.36076 8.90722 7.87623C8.90722 8.39169 8.39175 8.90716 7.87629 8.90716C7.36082 8.90716 6.84536 8.39169 6.84536 7.87623C6.84536 7.36076 7.36082 6.8453 7.87629 6.8453ZM20.1443 19.0102C20.1443 19.6288 19.6289 20.1443 19.0103 20.1443C16.9485 20.3505 14.0619 20.4535 12 20.4535C9.93814 20.4535 7.05155 20.2474 4.98969 20.1443C4.57732 20.1443 4.26804 19.835 4.06186 19.5257L11.6907 13.4432C12.9278 12.4123 14.7835 12.4123 15.9175 13.5463L20.2474 17.2577C20.2474 17.8762 20.2474 18.4948 20.1443 19.0102Z" fill="#030D45"/>
</svg>
