<svg width="24" height="24" viewBox="0 0 24 24" fill="none" xmlns="http://www.w3.org/2000/svg">
<path d="M21.9994 11.2783C21.9871 8.77929 21.7932 6.74221 21.6901 4.88654C21.587 3.54633 20.5561 2.41231 19.1129 2.30922C17.0511 2.10303 14.1646 1.99994 11.9997 1.99994C9.83481 1.99994 6.9483 2.10303 4.88651 2.30922C3.44325 2.41231 2.41236 3.44324 2.30927 4.88654C2.10309 6.94839 2 9.83499 2 11.9999C2 14.1649 2.20618 17.0515 2.30927 19.1133C2.41236 20.4535 3.44325 21.5876 4.88651 21.6907C5.91741 21.7938 7.05139 21.8968 8.28847 21.8968C9.52554 21.9999 10.8657 21.9999 11.9997 21.9999C14.1646 21.9999 17.0511 21.7938 19.1129 21.6907C20.453 21.5876 21.587 20.5566 21.6901 19.1133C21.8963 17.0515 21.9994 14.1649 21.9994 11.9999C21.9994 11.9999 22.0008 11.5601 21.9994 11.2783ZM7.87611 8.90716C7.36066 8.90716 6.84521 8.39169 6.84521 7.87623C6.84521 7.36076 7.36066 6.8453 7.87611 6.8453C8.39156 6.8453 8.907 7.36076 8.907 7.87623C8.907 8.39169 8.39156 8.90716 7.87611 8.90716ZM20.453 11.9999C20.453 14.1649 20.2469 16.9484 20.1438 19.0102C20.1438 19.6288 19.6283 20.1443 19.0098 20.1443C16.948 20.3505 14.0615 20.4535 11.9997 20.4535C11.0719 20.4535 10.041 20.4535 8.907 20.3505C8.70083 19.7319 8.59774 19.0102 8.59774 18.2886C8.59774 14.0618 12.1028 10.5566 16.3295 10.5566C17.7727 10.5566 19.216 10.969 20.453 11.6907V11.9999Z" fill="#030D45"/>
</svg>
