<svg width="24" height="24" viewBox="0 0 24 24" fill="none" xmlns="http://www.w3.org/2000/svg">
<path d="M12 2C6.4898 2 2 6.4898 2 12C2 17.5102 6.4898 22 12 22C17.5102 22 22 17.5102 22 12C22 6.4898 17.5102 2 12 2ZM12.8163 15.5714C12.8163 15.9796 12.5102 16.3878 12 16.3878C11.4898 16.3878 11.1837 16.0816 11.1837 15.5714V11.4898C11.1837 11.0816 11.4898 10.6735 12 10.6735C12.5102 10.6735 12.8163 10.9796 12.8163 11.4898V15.5714ZM12 9.44898C11.4898 9.44898 10.9796 8.93878 10.9796 8.42857C10.9796 7.91837 11.4898 7.40816 12 7.40816C12.5102 7.40816 13.0204 7.91837 13.0204 8.42857C13.0204 8.93878 12.5102 9.44898 12 9.44898Z" fill="#030D45"/>
</svg>
