<svg width="24" height="24" viewBox="0 0 24 24" fill="none" xmlns="http://www.w3.org/2000/svg">
<path d="M21.7632 17.31C21.2983 16.32 20.7404 15.06 20.0895 13.89C19.4387 12.63 18.7878 11.46 18.2299 10.38C17.1141 8.4 15.3474 5.88 14.0456 4.08C13.5807 3.45 12.8368 3 12 3C11.1632 3 10.4193 3.36 9.95437 4.08C8.65261 5.88 6.97891 8.4 5.77013 10.38C4.56135 12.45 3.1666 15.33 2.23677 17.31C1.86484 18.03 1.95782 18.93 2.32976 19.56C2.79467 20.28 3.53854 20.64 4.37538 20.73C6.60698 20.82 9.67542 21 12 21C14.3246 21 17.486 20.82 19.6246 20.73C20.4615 20.73 21.2053 20.28 21.6702 19.56C22.0422 18.93 22.1352 18.03 21.7632 17.31ZM12.7439 16.77C12.7439 17.13 12.4649 17.49 12 17.49C11.5351 17.49 11.2561 17.22 11.2561 16.77V13.17C11.2561 12.81 11.5351 12.45 12 12.45C12.4649 12.45 12.7439 12.72 12.7439 13.17V16.77ZM12 11.37C11.5351 11.37 11.0702 10.92 11.0702 10.47C11.0702 10.02 11.5351 9.57 12 9.57C12.4649 9.57 12.9298 10.02 12.9298 10.47C12.9298 10.92 12.4649 11.37 12 11.37Z" fill="#030D45"/>
</svg>
