<svg width="24" height="24" viewBox="0 0 24 24" fill="none" xmlns="http://www.w3.org/2000/svg">
<path d="M19.7551 4.14286C18.4286 2.81633 16.5918 2 14.6531 2C12.7143 2 10.8776 2.71429 9.55102 4.14286C7.71429 5.97959 7 8.63265 7.61224 11.0816C7.71429 11.4898 7.61224 11.5918 7.61224 11.5918L2.20408 17C2.10204 17.102 2 17.3061 2 17.5102V21.1837C2 21.5918 2.30612 22 2.81633 22H6.4898C6.69388 22 6.89796 21.898 7 21.7959L12.4082 16.3878C12.5102 16.2857 12.7143 16.1837 12.9184 16.2857C15.4694 17 18.1224 16.1837 19.8571 14.3469C21.1837 13.0204 22 11.2857 22 9.44898V9.2449C21.898 7.40816 21.0816 5.46939 19.7551 4.14286ZM14.9592 9.95918C14.449 9.95918 13.9388 9.44898 13.9388 8.93878C13.9388 8.42857 14.449 7.91837 14.9592 7.91837C15.4694 7.91837 15.9796 8.42857 15.9796 8.93878C15.9796 9.44898 15.4694 9.95918 14.9592 9.95918Z" fill="#030D45"/>
</svg>
