<svg width="24" height="24" viewBox="0 0 24 24" fill="none" xmlns="http://www.w3.org/2000/svg">
<path d="M21.1872 7.98329L16.5134 3.24235C16.0053 2.72703 15.1925 2.5209 14.4813 2.62396C14.3797 2.62396 14.2781 2.62396 14.1765 2.72703C14.1765 2.72703 14.1765 2.72703 14.0749 2.72703C13.9733 2.72703 13.9733 2.72703 13.8717 2.83009C13.3636 2.31477 12.6524 2.00558 11.8396 2.00558H5.84492C4.32086 1.90251 3 3.24235 3 4.78831V17.2591C3 18.0836 3.30481 18.805 3.91444 19.3203L6.14973 21.2785C6.65775 21.7939 7.36898 22 7.97861 22H9.80749C10.5187 22 11.1283 21.7939 11.6364 21.2785L14.4813 18.702L21.1872 11.8997C21.6952 11.3844 22 10.663 22 9.94151C22 9.22006 21.6952 8.49861 21.1872 7.98329ZM8.89305 18.1866C8.38503 18.1866 7.87701 17.6713 7.87701 17.156C7.87701 16.6407 8.38503 16.1253 8.89305 16.1253C9.40107 16.1253 9.90909 16.6407 9.90909 17.156C9.90909 17.6713 9.40107 18.1866 8.89305 18.1866ZM20.1711 10.8691L14.7861 16.3315V4.78831C14.7861 4.58218 14.7861 4.37605 14.6845 4.16992C14.6845 4.16992 14.6845 4.16992 14.7861 4.16992H14.8877C14.8877 4.16992 14.9893 4.16992 15.0909 4.16992C15.2941 4.16992 15.3957 4.27299 15.5989 4.37605L20.2727 9.117C20.4759 9.32312 20.6791 9.63232 20.6791 10.0446C20.6791 10.4568 20.3743 10.663 20.1711 10.8691Z" fill="#030D45"/>
</svg>
