<svg width="24" height="24" viewBox="0 0 24 24" fill="none" xmlns="http://www.w3.org/2000/svg">
<path d="M15.9118 17.9105V18.0132C15.9118 19.8609 14.6765 21.5032 12.8235 21.9138C10.3529 22.4271 8.19116 20.5794 8.19116 18.1158V17.9105H15.9118Z" fill="#030D45"/>
<path d="M19 8.8774C19 10.9304 17.5588 13.2913 16.9412 14.1125C16.8382 14.2152 16.8382 14.3178 16.7353 14.5231L16.2206 15.9602C16.1176 16.1655 16.0147 16.2681 15.7059 16.2681H8.19118C7.98529 16.2681 7.77941 16.1655 7.67647 15.9602L7.16177 14.5231C7.16177 14.4205 7.05882 14.3178 6.95588 14.1125C6.44118 13.2913 5.10294 10.9304 5 8.8774C5 7.02972 5.61765 5.28468 6.95588 4.05289C8.29412 2.71845 10.0441 1.99991 12 1.99991C13.9559 1.99991 15.7059 2.8211 17.0441 4.05289C18.2794 5.38733 19 7.02972 19 8.8774Z" fill="#030D45"/>
</svg>
