<svg width="24" height="24" viewBox="0 0 24 24" fill="none" xmlns="http://www.w3.org/2000/svg">
<path d="M20.7931 11.0256C20.6897 9.69231 19.6552 8.66667 18.3103 8.5641C17.8966 8.5641 17.3793 8.46154 16.9655 8.46154V5.89744C16.9655 3.74359 15.2069 2 13.0345 2H10.9655C8.7931 2 7.03448 3.74359 7.03448 5.89744V8.46154C6.51724 8.46154 6.10345 8.5641 5.68966 8.5641C4.34483 8.66667 3.31034 9.69231 3.2069 11.0256C3.10345 12.1538 3 13.8974 3 15.1282C3 16.359 3.10345 18 3.2069 19.2308C3.31034 20.5641 4.34483 21.5897 5.68966 21.6923C7.55172 21.8974 10.0345 22 12 22C13.9655 22 16.4483 21.7949 18.3103 21.6923C19.6552 21.5897 20.6897 20.5641 20.7931 19.2308C20.8966 18.1026 21 16.4615 21 15.1282C21 13.7949 20.8966 12.2564 20.7931 11.0256ZM12.8276 16.1538C12.8276 16.5641 12.5172 16.9744 12 16.9744C11.4828 16.9744 11.1724 16.6667 11.1724 16.1538V14.1026C11.1724 13.6923 11.4828 13.2821 12 13.2821C12.5172 13.2821 12.8276 13.5897 12.8276 14.1026V16.1538ZM15.3103 8.35897C14.1724 8.25641 13.0345 8.15385 12 8.15385C10.9655 8.15385 9.82759 8.15385 8.68965 8.25641V5.89744C8.68965 4.66667 9.72414 3.64103 10.9655 3.64103H13.0345C14.2759 3.64103 15.3103 4.66667 15.3103 5.89744V8.35897Z" fill="#A2AEBD"/>
</svg>
