<svg width="24" height="24" viewBox="0 0 24 24" fill="none" xmlns="http://www.w3.org/2000/svg">
<path d="M22 8.58532V17.0731C22 18.439 20.8733 19.6097 19.4394 19.7073C17.2884 19.9024 14.3181 20 12.0648 20C9.81147 20 6.84116 19.8048 4.69025 19.7073C3.25631 19.6097 2.12964 18.439 2.12964 17.0731V8.58532L3.666 9.36581L10.7333 13.0731C11.143 13.2682 11.6551 13.3658 12.0648 13.3658C12.4745 13.3658 12.9866 13.2682 13.3963 13.0731L20.4636 9.36581L22 8.58532Z" fill="#A2AEBD"/>
<path d="M21.8976 6.43902C21.8976 6.63415 21.7952 6.92683 21.5903 7.02439L20.3612 7.60976L12.577 11.7073C12.1673 11.9024 11.7576 11.9024 11.3479 11.7073L2.33452 7.02439C2.12967 6.92683 1.92482 6.73171 2.02724 6.53659C2.23209 5.36585 3.25634 4.39024 4.58785 4.29268C6.73877 4.09756 9.70907 4 11.9624 4C14.2157 4 17.2885 4.19512 19.337 4.29268C20.6685 4.39024 21.6927 5.26829 21.8976 6.43902Z" fill="#A2AEBD"/>
</svg>
