<svg width="24" height="24" viewBox="0 0 24 24" fill="none" xmlns="http://www.w3.org/2000/svg">
<path d="M20.1633 13.8974C20.1633 14 20.1633 14.1026 20.1633 14.3077C20.1633 14.2051 20.1633 14.2051 20.1633 14.1026C20.1633 14 20.1633 13.8974 20.1633 13.8974ZM3.63265 13.8974V14C3.63265 14.1026 3.63265 14.2051 3.63265 14.2051C3.63265 14.1026 3.63265 14 3.63265 13.8974Z" fill="#030D45"/>
<path d="M21.4898 4.76923C21.3878 3.4359 20.2653 2.41026 18.9388 2.30769C16.898 2.10256 14.0408 2 11.7959 2C9.55102 2 6.79592 2.10256 4.7551 2.30769C4.04082 2.30769 3.53061 2.61538 3.02041 3.12821C2.61224 3.53846 2.30612 4.15385 2.30612 4.76923C2.20408 6.41026 2 8.66667 2 10.4103C2 12.1538 2.20408 14.4103 2.30612 16.0513C2.40816 17.3846 3.53061 18.4103 4.85714 18.5128C6.89796 18.718 9.7551 18.8205 12 18.8205C14.2449 18.8205 17.102 18.6154 19.1429 18.5128C20.4694 18.4103 21.4898 17.3846 21.6939 16.0513C21.898 14.4103 22 12.1538 22 10.4103C22 8.66667 21.6939 6.41026 21.4898 4.76923ZM20.1633 14.2051C20.0612 14.5128 19.7551 14.7179 19.449 14.7179H4.34694C4.04082 14.7179 3.73469 14.5128 3.63265 14.2051C3.63265 14.1026 3.63265 14.1026 3.63265 14V13.8974C3.73469 13.5897 4.04082 13.2821 4.34694 13.2821H19.3469C19.7551 13.2821 20.0612 13.5897 20.0612 13.8974V14C20.1633 14.1026 20.1633 14.2051 20.1633 14.2051Z" fill="#030D45"/>
<path d="M15.9796 22H7.81633C7.40816 22 7 21.6923 7 21.1795C7 20.6667 7.30612 20.359 7.81633 20.359H15.9796C16.3878 20.359 16.7959 20.6667 16.7959 21.1795C16.7959 21.6923 16.3878 22 15.9796 22Z" fill="#030D45"/>
<path d="M3.63265 13.8974C3.63265 14 3.63265 14.1026 3.63265 14.3077C3.63265 14.2051 3.63265 14.2051 3.63265 14.1026C3.63265 14 3.63265 13.8974 3.63265 13.8974Z" fill="#030D45"/>
<path d="M20.1633 14C20.1633 14.1026 20.1633 14.2051 20.1633 14.2051C20.1633 14.1026 20.1633 14 20.1633 13.7949C20.1633 13.8974 20.1633 14 20.1633 14Z" fill="#030D45"/>
</svg>
