<svg width="24" height="24" viewBox="0 0 24 24" fill="none" xmlns="http://www.w3.org/2000/svg">
<path d="M21.4898 4.76923C21.3878 3.4359 20.2653 2.41026 18.9388 2.30769C16.898 2.10256 14.0408 2 11.7959 2C9.55102 2 6.79592 2.10256 4.7551 2.30769C4.04082 2.30769 3.53061 2.61538 3.02041 3.12821C2.61224 3.53846 2.30612 4.15385 2.30612 4.76923C2.20408 6.41026 2 8.66667 2 10.4103C2 12.1538 2.20408 14.4103 2.30612 16.0513C2.40816 17.3846 3.53061 18.4103 4.85714 18.5128C6.89796 18.718 9.7551 18.8205 12 18.8205C14.2449 18.8205 17.102 18.6154 19.1429 18.5128C20.4694 18.4103 21.4898 17.3846 21.6939 16.0513C21.898 14.4103 22 12.1538 22 10.4103C22 8.66667 21.6939 6.41026 21.4898 4.76923ZM16.4898 8.35897L13.4286 11.4359C13.1224 11.7436 12.6122 11.7436 12.3061 11.4359L10.8776 10L8.32653 12.5641C8.12245 12.6667 8.02041 12.7692 7.81633 12.7692C7.61224 12.7692 7.40816 12.6667 7.30612 12.5641C7 12.2564 7 11.7436 7.30612 11.4359L10.3673 8.35897C10.6735 8.05128 11.1837 8.05128 11.4898 8.35897L12.9184 9.79487L15.4694 7.23077C15.7755 6.92308 16.2857 6.92308 16.5918 7.23077C16.7959 7.64103 16.7959 8.05128 16.4898 8.35897Z" fill="#030D45"/>
<path d="M15.9796 22H7.81633C7.40816 22 7 21.6923 7 21.1795C7 20.6667 7.30612 20.359 7.81633 20.359H15.9796C16.3878 20.359 16.7959 20.6667 16.7959 21.1795C16.7959 21.6923 16.3878 22 15.9796 22Z" fill="#030D45"/>
</svg>
