<svg width="24" height="24" viewBox="0 0 24 24" fill="none" xmlns="http://www.w3.org/2000/svg">
<path d="M21.562 17.0769H18.0662C17.8606 17.0769 17.655 17.282 17.655 17.4871V21.5897C17.655 21.7948 17.8606 22 18.0662 22H20.1226C21.1507 22 21.9733 21.1794 21.9733 20.1538V17.5897C22.0761 17.282 21.8705 17.0769 21.562 17.0769Z" fill="#030D45"/>
<path d="M16.3184 17.0769H12.8226C12.617 17.0769 12.4113 17.282 12.4113 17.4871V20.0512C12.4113 21.0769 13.2339 21.8974 14.262 21.8974H16.3184C16.524 21.8974 16.7296 21.6923 16.7296 21.4871V17.3846C16.8325 17.282 16.6268 17.0769 16.3184 17.0769Z" fill="#030D45"/>
<path d="M11.1775 14.8205H7.68172C7.47608 14.8205 7.27045 15.0256 7.27045 15.2308V19.3333C7.27045 19.5385 7.47608 19.7436 7.68172 19.7436H11.1775C11.3831 19.7436 11.5888 19.5385 11.5888 19.3333V15.2308C11.5888 15.0256 11.3831 14.8205 11.1775 14.8205Z" fill="#030D45"/>
<path d="M5.93305 14.8205H2.43727C2.23164 14.8205 2.026 15.0256 2.026 15.2308V17.7949C2.026 18.8205 2.84854 19.641 3.87671 19.641H5.93305C6.13868 19.641 6.34432 19.4359 6.34432 19.2308V15.1282C6.34432 15.0256 6.13868 14.8205 5.93305 14.8205Z" fill="#030D45"/>
<path d="M11.1767 7.8461H2.43727C2.23164 7.8461 2.026 8.05123 2.026 8.25636V13.4871C2.026 13.6923 2.23164 13.8974 2.43727 13.8974H11.1767C11.3824 13.8974 11.588 13.6923 11.588 13.4871V8.25636C11.588 8.05123 11.3824 7.8461 11.1767 7.8461Z" fill="#030D45"/>
<path d="M21.562 10.2051H12.8226C12.617 10.2051 12.4113 10.4103 12.4113 10.6154V15.8462C12.4113 16.0513 12.617 16.2564 12.8226 16.2564H21.562C21.7677 16.2564 21.9733 16.0513 21.9733 15.8462V10.6154C22.0761 10.4103 21.8705 10.2051 21.562 10.2051Z" fill="#030D45"/>
<path d="M20.1226 4.35902H18.0662C17.8606 4.35902 17.655 4.56415 17.655 4.76928V8.87184C17.655 9.07697 17.8606 9.2821 18.0662 9.2821H21.562C21.7676 9.2821 21.9733 9.07697 21.9733 8.87184V6.20518C22.0761 5.17954 21.1507 4.35902 20.1226 4.35902Z" fill="#030D45"/>
<path d="M12.8226 9.2821H16.3184C16.524 9.2821 16.7296 9.07697 16.7296 8.87184V4.76928C16.7296 4.56415 16.524 4.35902 16.3184 4.35902H12.8226C12.617 4.35902 12.4113 4.56415 12.4113 4.76928V8.87184C12.4113 9.07697 12.617 9.2821 12.8226 9.2821Z" fill="#030D45"/>
<path d="M9.63519 2H7.57885C7.37322 2 7.16759 2.20513 7.16759 2.41026V6.51282C7.16759 6.71795 7.37322 6.92308 7.57885 6.92308H11.0746C11.2803 6.92308 11.4859 6.71795 11.4859 6.51282V3.94872C11.5887 2.92308 10.7662 2 9.63519 2Z" fill="#030D45"/>
<path d="M2.43801 7.02574H5.93379C6.13943 7.02574 6.34506 6.82061 6.34506 6.61548V2.51292C6.34506 2.30779 6.13943 2.10266 5.93379 2.10266H3.87745C2.84928 2.10266 2.02675 2.92318 2.02675 3.94882V6.51292C1.92393 6.82061 2.12956 7.02574 2.43801 7.02574Z" fill="#030D45"/>
</svg>
