<svg width="24" height="24" viewBox="0 0 24 24" fill="none" xmlns="http://www.w3.org/2000/svg">
<path d="M19.6883 4.85714C19.5844 3.53061 18.5455 2.40816 17.1948 2.30612C15.7403 2.20408 13.5584 2 12 2C10.4416 2 8.25974 2.20408 6.80519 2.40816C5.45455 2.5102 4.41558 3.53061 4.31169 4.85714C4.20779 6.4898 4 9.65306 4 12C4 14.2449 4.20779 17.4082 4.31169 19.1429C4.41558 20.4694 5.45455 21.5918 6.80519 21.6939C8.25974 21.7959 10.4416 22 12 22C13.5584 22 15.7403 21.7959 17.1948 21.6939C18.5455 21.5918 19.5844 20.4694 19.6883 19.1429C19.7922 17.5102 20 14.3469 20 12C20 9.65306 19.7922 6.59184 19.6883 4.85714ZM8.88312 9.14286H12C12.4156 9.14286 12.8312 9.44898 12.8312 9.95918C12.8312 10.4694 12.5195 10.7755 12 10.7755H8.88312C8.46753 10.7755 8.05195 10.4694 8.05195 9.95918C8.05195 9.44898 8.46753 9.14286 8.88312 9.14286ZM15.1169 14.8571H8.88312C8.46753 14.8571 8.05195 14.551 8.05195 14.0408C8.05195 13.5306 8.36364 13.2245 8.88312 13.2245H15.1169C15.5325 13.2245 15.9481 13.5306 15.9481 14.0408C15.9481 14.551 15.5325 14.8571 15.1169 14.8571Z" fill="#030D45"/>
</svg>
