<svg width="24" height="24" viewBox="0 0 24 24" fill="none" xmlns="http://www.w3.org/2000/svg">
<path d="M19.1795 7.13221L14.9744 2.82571C14.4615 2.31304 13.7436 2.00543 12.9231 2.00543H6.8718C5.33333 1.90289 4 3.23586 4 4.77389V19.1289C4 20.6669 5.23077 21.9999 6.8718 21.9999H17.1282C18.6667 21.9999 20 20.7695 20 19.1289V9.08039C20 8.36264 19.6923 7.64489 19.1795 7.13221ZM8.92308 10.1057H12C12.4103 10.1057 12.8205 10.4134 12.8205 10.926C12.8205 11.4387 12.5128 11.7463 12 11.7463H8.92308C8.51282 11.7463 8.10256 11.4387 8.10256 10.926C8.10256 10.4134 8.51282 10.1057 8.92308 10.1057ZM15.0769 15.8477H8.92308C8.51282 15.8477 8.10256 15.5401 8.10256 15.0275C8.10256 14.5148 8.41026 14.2072 8.92308 14.2072H15.0769C15.4872 14.2072 15.8974 14.5148 15.8974 15.0275C15.8974 15.5401 15.4872 15.8477 15.0769 15.8477Z" fill="#030D45"/>
</svg>
