<svg width="24" height="24" viewBox="0 0 24 24" fill="none" xmlns="http://www.w3.org/2000/svg">
<path d="M19.954 8.8718C19.954 8.5641 19.954 8.35897 19.954 8.15385C19.7468 4.8718 17.1568 2.20513 13.8417 2C13.2201 2 12.5986 2 12.0806 2C10.5266 2 8.35108 2.20513 6.90072 2.30769C5.45036 2.41026 4.41439 3.4359 4.31079 4.76923C4.20719 6.41026 4 9.58974 4 11.9487C4 14.2051 4.20719 17.3846 4.31079 19.1282C4.41439 20.4615 5.45036 21.5897 6.79712 21.6923C8.24748 21.7949 10.423 22 11.977 22C13.5309 22 15.7065 21.7949 17.1568 21.6923C18.5036 21.5897 19.5396 20.4615 19.6432 19.1282C19.7468 17.4872 19.954 14.3077 19.954 11.9487C20.0576 11.1282 19.954 10.1026 19.954 8.8718ZM14.5669 15.0256C14.2561 15.3333 13.7381 15.3333 13.4273 15.0256L12.1842 13.7949V17.0769C12.1842 17.4872 11.8734 17.8974 11.3554 17.8974C10.8374 17.8974 10.5266 17.5897 10.5266 17.0769V13.7949L9.38705 15.0256C9.07626 15.3333 8.55827 15.3333 8.24748 15.0256C7.93669 14.7179 7.93669 14.2051 8.24748 13.8974L10.8374 11.3333C10.941 11.2308 11.0446 11.2308 11.0446 11.1282C11.2518 11.0256 11.459 11.0256 11.6662 11.1282C11.7698 11.1282 11.8734 11.2308 11.8734 11.3333L14.4633 13.8974C14.8777 14.3077 14.8777 14.7179 14.5669 15.0256ZM15.0849 8.05128C14.3597 8.05128 13.8417 7.4359 13.8417 6.82051V3.53846C16.2245 3.74359 18.1928 5.58974 18.4 8.05128H15.0849Z" fill="#030D45"/>
</svg>
