<svg width="24" height="24" viewBox="0 0 24 24" fill="none" xmlns="http://www.w3.org/2000/svg">
<path d="M12 2C6.4898 2 2 6.4898 2 12C2 17.5102 6.4898 22 12 22C17.5102 22 22 17.5102 22 12C22 6.4898 17.5102 2 12 2ZM12 17.6122C11.4898 17.6122 10.9796 17.102 10.9796 16.5918C10.9796 16.0816 11.4898 15.5714 12 15.5714C12.5102 15.5714 13.0204 16.0816 13.0204 16.5918C13.0204 17.102 12.5102 17.6122 12 17.6122ZM14.3469 10.9796C14.1429 11.2857 13.9388 11.5918 13.6327 11.898C13.1225 12.5102 12.7143 13.0204 12.7143 13.5306C12.7143 13.9388 12.4082 14.3469 11.898 14.3469C11.3878 14.3469 11.0816 14.0408 11.0816 13.5306C11.0816 12.5102 11.7959 11.5918 12.3061 10.8776C12.5102 10.6735 12.7143 10.3673 12.9184 10.0612C13.0204 9.85714 13.1225 9.65306 13.1225 9.34694C13.1225 8.63265 12.5102 8.12245 11.898 8.12245C11.2857 8.12245 10.6735 8.73469 10.6735 9.34694C10.6735 9.7551 10.3673 10.1633 9.85714 10.1633C9.34694 10.1633 9.14286 9.85714 9.14286 9.44898C9.14286 7.91837 10.3673 6.59184 12 6.59184C13.6327 6.59184 14.8571 7.81633 14.8571 9.44898C14.8571 9.95918 14.6531 10.4694 14.3469 10.9796Z" fill="#030D45"/>
</svg>
