<svg width="24" height="24" viewBox="0 0 24 24" fill="none" xmlns="http://www.w3.org/2000/svg">
<path d="M21.9068 4.38806L15.4371 20.9055C15.1385 21.602 14.5413 22 13.8446 22C13.1478 22 12.5506 21.602 12.252 20.9055L9.56459 14.5373C9.56459 14.4378 9.46506 14.4378 9.46506 14.4378L3.09488 11.7512C2.39814 11.4527 2 10.8557 2 10.1592C2 9.46269 2.39814 8.86567 3.09488 8.56716L19.6175 2.0995C19.8166 2 20.0157 2 20.2147 2C20.7124 2 21.1106 2.199 21.4092 2.49751C22.0064 2.99502 22.1059 3.69154 21.9068 4.38806Z" fill="#030D45"/>
</svg>
