<svg width="24" height="24" viewBox="0 0 24 24" fill="none" xmlns="http://www.w3.org/2000/svg">
<path d="M20.1632 15.2728C19.7551 15.2728 19.3469 15.5796 19.3469 16.091V18.1364C19.3469 18.8523 18.7346 19.3637 18.1224 19.3637H16.0816C15.6734 19.3637 15.2653 19.6705 15.2653 20.1819C15.2653 20.6932 15.5714 21.0001 16.0816 21.0001H18.1224C19.653 21.0001 20.9795 19.7728 20.9795 18.1364V16.091C20.9795 15.6819 20.5714 15.2728 20.1632 15.2728Z" fill="#030D45"/>
<path d="M16.0816 4.63643H18.1224C18.8367 4.63643 19.3469 5.25006 19.3469 5.8637V7.90915C19.3469 8.31824 19.6531 8.72733 20.1633 8.72733C20.6735 8.72733 20.9796 8.42052 20.9796 7.90915V5.8637C20.9796 4.32961 19.7551 3.00006 18.1224 3.00006H16.0816C15.6735 3.00006 15.2653 3.30688 15.2653 3.81824C15.2653 4.32961 15.6735 4.63643 16.0816 4.63643Z" fill="#030D45"/>
<path d="M7.91834 19.3637H5.87753C5.16324 19.3637 4.65304 18.7501 4.65304 18.1364V16.091C4.65304 15.6819 4.34692 15.2728 3.83671 15.2728C3.32651 15.2728 3.02039 15.6819 3.02039 16.091V18.1364C3.02039 19.6705 4.24488 21.0001 5.87753 21.0001H7.91834C8.32651 21.0001 8.73467 20.6932 8.73467 20.1819C8.73467 19.6705 8.32651 19.3637 7.91834 19.3637Z" fill="#030D45"/>
<path d="M3.83673 8.72733C4.2449 8.72733 4.65306 8.42052 4.65306 7.90915V5.8637C4.65306 5.14779 5.26531 4.63643 5.87755 4.63643H7.91837C8.32653 4.63643 8.73469 4.32961 8.73469 3.81824C8.73469 3.30688 8.32653 3.00006 7.91837 3.00006H5.87755C4.34694 3.00006 3.02041 4.32961 3.02041 5.8637V7.90915C3.02041 8.31824 3.42857 8.72733 3.83673 8.72733Z" fill="#030D45"/>
<path d="M16.0816 18.1364C17.2041 18.1364 18.1225 17.216 18.1225 16.091V14.2501H5.87756V16.091C5.87756 17.216 6.79593 18.1364 7.91838 18.1364H16.0816Z" fill="#030D45"/>
<path d="M21.1837 11.1819H18.1225V7.9092C18.1225 6.7842 17.2041 5.86375 16.0816 5.86375H7.91837C6.79592 5.86375 5.87755 6.7842 5.87755 7.9092V11.3865H2.81633C2.40816 11.3865 2 11.6933 2 12.2047C2 12.716 2.30612 13.0228 2.81633 13.0228H21.1837C21.5918 13.0228 22 12.716 22 12.2047C22 11.6933 21.5918 11.1819 21.1837 11.1819Z" fill="#030D45"/>
</svg>
