<svg width="24" height="24" viewBox="0 0 24 24" fill="none" xmlns="http://www.w3.org/2000/svg">
<path d="M19.1429 2.00006H17.102C16.6939 2.00006 16.2857 2.30618 16.2857 2.81639C16.2857 3.32659 16.5918 3.63271 17.102 3.63271H19.1429C19.8571 3.63271 20.3673 4.24496 20.3673 4.8572V6.89802C20.3673 7.30618 20.6735 7.71435 21.1837 7.71435C21.6939 7.71435 22 7.40822 22 6.89802V4.8572C22 3.32659 20.6735 2.00006 19.1429 2.00006Z" fill="#030D45"/>
<path d="M21.1837 16.2858C20.7755 16.2858 20.3673 16.5919 20.3673 17.1021V19.1429C20.3673 19.8572 19.7551 20.3674 19.1429 20.3674H17.102C16.6939 20.3674 16.2857 20.6735 16.2857 21.1837C16.2857 21.6939 16.5918 22.0001 17.102 22.0001H19.1429C20.6735 22.0001 22 20.7756 22 19.1429V17.1021C22 16.6939 21.5918 16.2858 21.1837 16.2858Z" fill="#030D45"/>
<path d="M2.81633 7.71435C3.22449 7.71435 3.63265 7.40822 3.63265 6.89802V4.8572C3.63265 4.14292 4.2449 3.63271 4.85714 3.63271H6.89796C7.30612 3.63271 7.71429 3.32659 7.71429 2.81639C7.71429 2.30618 7.30612 2.00006 6.89796 2.00006H4.85714C3.32653 2.00006 2 3.32659 2 4.8572V6.89802C2 7.30618 2.40816 7.71435 2.81633 7.71435Z" fill="#030D45"/>
<path d="M6.89796 20.3674H4.85714C4.14286 20.3674 3.63265 19.7552 3.63265 19.1429V17.1021C3.63265 16.6939 3.32653 16.2858 2.81633 16.2858C2.30612 16.2858 2 16.6939 2 17.1021V19.1429C2 20.6735 3.22449 22.0001 4.85714 22.0001H6.89796C7.30612 22.0001 7.71429 21.6939 7.71429 21.1837C7.71429 20.6735 7.30612 20.3674 6.89796 20.3674Z" fill="#030D45"/>
<path d="M18.6327 16.1837C18.7347 14.9592 18.9388 13.3266 18.9388 12.0001C18.9388 10.6735 18.7347 9.04088 18.6327 7.81639C18.5306 6.5919 17.5102 5.57149 16.1837 5.36741C14.9592 5.26537 13.3265 5.06129 12 5.06129C10.6735 5.06129 9.04082 5.26537 7.81633 5.36741C6.4898 5.57149 5.57143 6.48986 5.36735 7.81639C5.26531 9.04088 5.06122 10.6735 5.06122 12.0001C5.06122 13.3266 5.26531 14.9592 5.36735 16.1837C5.46939 17.4082 6.4898 18.4286 7.81633 18.6327C9.04082 18.7348 10.6735 18.9388 12 18.9388C13.3265 18.9388 14.9592 18.7348 16.1837 18.6327C17.5102 18.4286 18.4286 17.5103 18.6327 16.1837Z" fill="#030D45"/>
</svg>
