<svg width="24" height="24" viewBox="0 0 24 24" fill="none" xmlns="http://www.w3.org/2000/svg">
<path d="M19.8619 4.31362L12.8068 2.15424C12.2802 1.94859 11.6484 1.94859 11.0166 2.15424L4.06674 4.31362C2.59252 4.72494 1.75011 6.0617 2.06602 7.50129L3.22433 13.671C3.75084 16.5501 5.22506 18.8123 7.43639 20.1491C9.43711 21.383 10.9113 22 12.0696 22C13.228 22 14.7022 21.383 16.7029 20.1491C18.9142 18.8123 20.3885 16.5501 20.915 13.671L21.968 7.50129C22.1786 6.0617 21.3362 4.72494 19.8619 4.31362ZM14.9128 12.7455H12.7015V14.9049C12.7015 15.3162 12.3855 15.7275 11.859 15.7275C11.3325 15.7275 11.0166 15.419 11.0166 14.9049V12.7455H9.01591C8.5947 12.7455 8.1735 12.437 8.1735 11.9229C8.1735 11.4087 8.4894 11.1003 9.01591 11.1003H11.2272V9.0437C11.2272 8.63239 11.5431 8.22108 12.0696 8.22108C12.5962 8.22108 12.9121 8.52956 12.9121 9.0437V11.2031H15.1234C15.5446 11.2031 15.9658 11.5116 15.9658 12.0257C15.9658 12.5398 15.334 12.7455 14.9128 12.7455Z" fill="#030D45"/>
</svg>
