<svg width="24" height="24" viewBox="0 0 24 24" fill="none" xmlns="http://www.w3.org/2000/svg">
<path d="M19.8619 4.3135L12.8068 2.15412C12.2802 1.94846 11.6484 1.94846 11.0166 2.15412L4.06674 4.3135C2.59252 4.72481 1.75011 6.06157 2.06602 7.50116L3.22433 13.6708C3.75084 16.55 5.22506 18.8122 7.43639 20.149C9.43711 21.3829 10.9113 21.9999 12.0696 21.9999C13.228 21.9999 14.7022 21.3829 16.7029 20.149C18.9142 18.8122 20.3885 16.55 20.915 13.6708L21.968 7.50116C22.1786 6.06157 21.3362 4.72481 19.8619 4.3135ZM14.5969 13.4652C14.9128 13.7737 14.9128 14.2878 14.5969 14.5963C14.3863 14.6991 14.281 14.8019 14.0704 14.8019C13.8598 14.8019 13.6492 14.6991 13.5439 14.5963L11.9643 13.0539L10.3848 14.5963C10.1742 14.6991 10.0689 14.8019 9.85832 14.8019C9.64772 14.8019 9.43711 14.6991 9.33181 14.5963C9.01591 14.2878 9.01591 13.7737 9.33181 13.4652L10.9113 11.9228L9.33181 10.3803C9.01591 10.0719 9.01591 9.55772 9.33181 9.24924C9.64772 8.94075 10.1742 8.94075 10.4901 9.24924L12.0696 10.7917L13.6492 9.24924C13.9651 8.94075 14.4916 8.94075 14.8075 9.24924C15.1234 9.55772 15.1234 10.0719 14.8075 10.3803L13.1227 11.9228L14.5969 13.4652Z" fill="#030D45"/>
</svg>
