<svg width="24" height="24" viewBox="0 0 24 24" fill="none" xmlns="http://www.w3.org/2000/svg">
<path d="M12 18.2962C15.4773 18.2962 18.2963 15.4773 18.2963 11.9999C18.2963 8.52258 15.4773 5.70364 12 5.70364C8.52264 5.70364 5.7037 8.52258 5.7037 11.9999C5.7037 15.4773 8.52264 18.2962 12 18.2962Z" fill="#030D45"/>
<path d="M12 4.40734C12.3704 4.40734 12.7407 4.12957 12.7407 3.6666V2.74068C12.7407 2.37031 12.463 1.99994 12 1.99994C11.537 1.99994 11.2592 2.37031 11.2592 2.74068V3.6666C11.2592 4.03697 11.6296 4.40734 12 4.40734Z" fill="#030D45"/>
<path d="M12 19.5925C11.6296 19.5925 11.2592 19.8703 11.2592 20.3333V21.2592C11.2592 21.6295 11.537 21.9999 12 21.9999C12.463 21.9999 12.7407 21.7221 12.7407 21.2592V20.3333C12.7407 19.9629 12.3704 19.5925 12 19.5925Z" fill="#030D45"/>
<path d="M21.2592 11.2592H20.3333C19.9629 11.2592 19.5926 11.537 19.5926 11.9999C19.5926 12.4629 19.8703 12.7407 20.3333 12.7407H21.2592C21.6296 12.7407 22 12.4629 22 11.9999C22 11.537 21.6296 11.2592 21.2592 11.2592Z" fill="#030D45"/>
<path d="M3.66666 11.2592H2.74074C2.37037 11.2592 2 11.537 2 11.9999C2 12.4629 2.27778 12.7407 2.74074 12.7407H3.66666C4.03703 12.7407 4.4074 12.4629 4.4074 11.9999C4.4074 11.537 4.03703 11.2592 3.66666 11.2592Z" fill="#030D45"/>
<path d="M18.0185 4.96299L17.3704 5.61114C17.0926 5.88891 17.0926 6.35188 17.3704 6.62965C17.4629 6.72225 17.6481 6.81484 17.8333 6.81484C18.0185 6.81484 18.2037 6.72225 18.2963 6.62965L18.9444 5.98151C19.2222 5.70373 19.2222 5.24077 18.9444 4.96299C18.6667 4.68521 18.2963 4.68521 18.0185 4.96299Z" fill="#030D45"/>
<path d="M5.61108 17.3703L4.96294 18.0184C4.68516 18.2962 4.68516 18.7592 4.96294 19.037C5.05553 19.1296 5.24071 19.2221 5.4259 19.2221C5.61108 19.2221 5.79627 19.1296 5.88886 19.037L6.53701 18.3888C6.81479 18.111 6.81479 17.6481 6.53701 17.3703C6.35182 17.0925 5.88886 17.0925 5.61108 17.3703Z" fill="#030D45"/>
<path d="M18.3889 17.3703C18.1111 17.0925 17.6481 17.0925 17.3704 17.3703C17.0926 17.6481 17.0926 18.111 17.3704 18.3888L18.0185 19.037C18.1111 19.1296 18.2963 19.2221 18.4815 19.2221C18.6666 19.2221 18.8518 19.1296 18.9444 19.037C19.2222 18.7592 19.2222 18.2962 18.9444 18.0184L18.3889 17.3703Z" fill="#030D45"/>
<path d="M5.61108 6.62965C5.70368 6.72225 5.88886 6.81484 6.07405 6.81484C6.25923 6.81484 6.44442 6.72225 6.6296 6.62965C6.90738 6.35188 6.90738 5.88891 6.6296 5.61114L5.98145 4.96299C5.70368 4.68521 5.24071 4.68521 4.96294 4.96299C4.68516 5.24077 4.68516 5.70373 4.96294 5.98151L5.61108 6.62965Z" fill="#030D45"/>
</svg>
