<svg width="24" height="24" viewBox="0 0 24 24" fill="none" xmlns="http://www.w3.org/2000/svg">
<path d="M20.7931 10.9211C20.6897 9.57508 19.6552 8.53967 18.3103 8.43613C16.4483 8.22904 13.9655 8.1255 12 8.1255C10.9655 8.1255 9.82759 8.1255 8.68965 8.22904V5.74406C8.68965 4.50157 9.72414 3.46616 10.9655 3.46616H13.5517C14.5862 3.46616 15.4138 4.29448 15.4138 5.3299C15.4138 5.74406 15.7241 6.15822 16.2414 6.15822C16.7586 6.15822 17.069 5.8476 17.069 5.3299C17.069 3.46616 15.5172 2.01658 13.7586 2.01658H10.9655C8.7931 1.8095 7.03448 3.5697 7.03448 5.74406V8.33258C6.51724 8.33258 6.10345 8.43613 5.68966 8.43613C4.34483 8.53967 3.31034 9.57508 3.2069 10.9211C3.10345 12.0601 3 13.8203 3 15.0628C3 16.3052 3.10345 17.9619 3.2069 19.2044C3.31034 20.5504 4.34483 21.5858 5.68966 21.6894C7.55172 21.8965 10.0345 22 12 22C13.9655 22 16.4483 21.7929 18.3103 21.6894C19.6552 21.5858 20.6897 20.5504 20.7931 19.2044C20.8966 18.0654 21 16.4088 21 15.0628C21 13.7167 20.8966 12.1636 20.7931 10.9211ZM12.8276 16.0982C12.8276 16.5123 12.5172 16.9265 12 16.9265C11.4828 16.9265 11.1724 16.6159 11.1724 16.0982V14.0273C11.1724 13.6132 11.4828 13.199 12 13.199C12.5172 13.199 12.8276 13.5096 12.8276 14.0273V16.0982Z" fill="#A2AEBD"/>
</svg>
