<svg width="24" height="24" viewBox="0 0 24 24" fill="none" xmlns="http://www.w3.org/2000/svg">
<path d="M8.93878 8.78981C9.14286 8.78981 9.34694 8.6879 9.44898 8.58599L11.1837 6.8535V13.0701C11.1837 13.4777 11.4898 13.8854 12 13.8854C12.5102 13.8854 12.8163 13.5796 12.8163 13.0701V6.75159L14.551 8.48408C14.7551 8.58599 14.8571 8.6879 15.0612 8.6879C15.2653 8.6879 15.4694 8.58599 15.5714 8.48408C15.8776 8.17834 15.8776 7.66879 15.5714 7.36306L12.5102 4.30573C12.4082 4.20382 12.3061 4.20382 12.3061 4.10191C12.2041 4.10191 12.102 4 12 4C11.898 4 11.7959 4 11.6939 4.10191C11.5918 4.10191 11.4898 4.20382 11.4898 4.30573L8.42857 7.36306C8.12245 7.66879 8.12245 8.17834 8.42857 8.48408C8.53061 8.6879 8.73469 8.78981 8.93878 8.78981Z" fill="#030D45"/>
<path d="M21.1837 12.2548H15.9796L13.6327 14.5987C13.4286 14.8025 13.1224 15.0064 12.9184 15.1083C12.6122 15.2102 12.3061 15.3121 12 15.3121C11.6939 15.3121 11.3878 15.2102 11.0816 15.1083C10.7755 15.0064 10.5714 14.8025 10.3673 14.5987L8.02041 12.2548H2.81633C2.40816 12.2548 2 12.5605 2 13.0701V16.8408C2 18.2675 3.12245 19.4904 4.55102 19.5924C6.69388 19.7962 9.65306 20 12 20C14.3469 20 17.3061 19.7962 19.449 19.5924C20.8776 19.4904 22 18.2675 22 16.8408V13.0701C22 12.7643 21.5918 12.2548 21.1837 12.2548Z" fill="#030D45"/>
</svg>
