<svg width="24" height="24" viewBox="0 0 24 24" fill="none" xmlns="http://www.w3.org/2000/svg">
<path d="M12 11.7959C14.7189 11.7959 16.9231 9.60303 16.9231 6.89796C16.9231 4.19289 14.7189 2 12 2C9.28106 2 7.07692 4.19289 7.07692 6.89796C7.07692 9.60303 9.28106 11.7959 12 11.7959Z" fill="#030D45"/>
<path d="M14.5641 13.8368H9.4359C6.46154 13.8368 4 16.2858 4 19.245C4 19.9593 4.30769 20.5715 4.92308 20.8777C5.84615 21.3879 7.89744 22.0001 12 22.0001C16.1026 22.0001 18.1538 21.3879 19.0769 20.8777C19.5897 20.5715 20 19.9593 20 19.245C20 16.1838 17.5385 13.8368 14.5641 13.8368Z" fill="#030D45"/>
</svg>
