<svg width="24" height="24" viewBox="0 0 24 24" fill="none" xmlns="http://www.w3.org/2000/svg">
<path d="M17.5897 6.8718C17.5897 6.15385 17.2821 5.64103 16.7692 5.12821C16.2564 4.61538 15.7436 4.41026 15.0256 4.30769C13.4872 4.20513 11.4359 4 9.79487 4C8.15385 4 6.20513 4.20513 4.66667 4.30769C3.33333 4.51282 2.30769 5.53846 2.20513 6.8718C2.10256 8.30769 2 10.359 2 12C2 13.641 2.10256 15.5897 2.20513 17.1282C2.30769 18.4615 3.33333 19.5897 4.66667 19.6923C6.20513 19.7949 8.25641 20 9.89744 20C11.5385 20 13.5897 19.7949 15.1282 19.6923C16.4615 19.5897 17.4872 18.4615 17.5897 17.1282C17.5897 16.6154 17.6923 15.8974 17.6923 15.2821C17.7949 14.1538 17.7949 13.0256 17.7949 12C17.7949 10.9744 17.7949 9.84615 17.6923 8.71795C17.6923 8.10256 17.5897 7.48718 17.5897 6.8718Z" fill="#030D45"/>
<path d="M21.5898 7.28205C21.3846 7.17949 21.0769 7.17949 20.8718 7.28205L18.718 8.30769C18.718 8.82051 18.8205 9.4359 18.8205 9.94872C18.8205 10.6667 18.9231 11.3846 18.9231 12C18.9231 12.6154 18.9231 13.3333 18.8205 14.0513C18.8205 14.5641 18.8205 15.1795 18.718 15.6923L20.8718 16.7179C20.9744 16.7179 21.0769 16.8205 21.1795 16.8205C21.2821 16.8205 21.4872 16.8205 21.5898 16.7179C21.7949 16.6154 22 16.3077 22 16.1026V7.89744C22 7.58974 21.7949 7.38462 21.5898 7.28205Z" fill="#030D45"/>
</svg>
