<svg width="24" height="24" viewBox="0 0 24 24" fill="none" xmlns="http://www.w3.org/2000/svg">
<path d="M12 14.7836C13.9487 14.7836 15.4872 13.3403 15.6923 11.4847C15.7949 10.2475 15.8974 9.21662 15.8974 8.39188C15.8974 7.56713 15.8974 6.5362 15.6923 5.29909C15.4872 3.44342 13.9487 2.00012 12 2.00012C11.0769 2.00012 10.1538 2.3094 9.53846 2.92796C8.92308 3.54651 8.41026 4.26816 8.30769 5.196C8.20513 6.43311 8.10256 7.46404 8.10256 8.28878C8.10256 9.11352 8.10256 10.1445 8.30769 11.3816C8.51282 13.3403 10.0513 14.7836 12 14.7836Z" fill="#030D45"/>
<path d="M19.1795 7.97955C18.7692 7.97955 18.359 8.28883 18.359 8.8043C18.359 9.62904 18.2564 10.66 18.1538 11.8971C17.8462 14.9899 15.1795 17.361 11.8974 17.361C8.61538 17.361 6.05128 14.9899 5.74359 11.8971C5.64103 10.66 5.53846 9.62904 5.53846 8.8043C5.53846 8.39193 5.23077 7.97955 4.71795 7.97955C4.20513 7.97955 4 8.39193 4 8.8043C4 9.73213 4.10256 10.7631 4.20513 12.0002C4.51282 15.6084 7.48718 18.495 11.1795 18.8043V21.1754C11.1795 21.5878 11.4872 22.0002 12 22.0002C12.5128 22.0002 12.8205 21.6909 12.8205 21.1754V18.8043C16.5128 18.495 19.4872 15.6084 19.7949 12.0002C19.8974 10.7631 20 9.62904 20 8.8043C20 8.39193 19.5897 7.97955 19.1795 7.97955Z" fill="#030D45"/>
</svg>
