<svg width="24" height="24" viewBox="0 0 24 24" fill="none" xmlns="http://www.w3.org/2000/svg">
<path d="M18 11.9468C18 14.3129 17.5862 17.2964 17.2759 19.4568C17.1724 20.0741 16.7586 20.6913 16.0345 20.8971C15.8276 20.8971 15.6207 21 15.5172 21C15 21 14.5862 20.7942 14.2759 20.4856L10.9655 17.1935C10.1379 16.3705 9.10345 15.959 8.06897 15.959C7.03448 15.959 6 15.136 6 14.0043V9.88922C6 8.75757 6.93104 7.93456 7.96552 7.93456C9 7.93456 10.1379 7.52305 10.8621 6.70003L14.069 3.51083C14.5862 2.99645 15.2069 2.89357 15.931 3.09932C16.5517 3.30508 17.069 3.81946 17.1724 4.5396C17.5862 6.59715 18 9.58059 18 11.9468Z" fill="#030D45"/>
</svg>
