<svg width="24" height="24" viewBox="0 0 24 24" fill="none" xmlns="http://www.w3.org/2000/svg">
<path d="M13.9487 3.08127C13.3333 2.87411 12.6154 3.08127 12.1026 3.49557L8.92308 6.70644C8.20513 7.53506 7.17949 7.94936 6.05128 7.94936C4.92308 7.94936 4 8.77797 4 9.91732V14.0604C4 15.1997 4.92308 16.0283 5.94872 16.0283C6.97436 16.0283 8.10256 16.4426 8.82051 17.2712L12 20.4821C12.3077 20.7928 12.8205 21 13.2308 21C13.4359 21 13.641 21 13.7436 20.8964C14.359 20.6893 14.8718 20.1714 14.9744 19.4464C15.2821 17.3748 15.6923 14.3711 15.6923 11.8853C15.6923 9.39943 15.4872 6.60287 15.0769 4.42776C14.9744 3.8063 14.5641 3.28842 13.9487 3.08127Z" fill="#030D45"/>
<path d="M18.8717 6.49928C18.6666 6.08497 18.2563 5.9814 17.8461 6.08497C17.4358 6.29213 17.3333 6.70643 17.4358 7.12074C18.0512 8.36366 18.3589 10.1245 18.3589 11.9888C18.3589 13.8532 18.0512 15.5104 17.4358 16.8569C17.2307 17.2712 17.4358 17.6855 17.8461 17.8927C17.9486 17.9963 18.0512 17.9963 18.1538 17.9963C18.4615 17.9963 18.6666 17.7891 18.8717 17.582C19.5897 16.1319 19.9999 14.1639 19.9999 12.0924C19.9999 9.9173 19.5897 7.94935 18.8717 6.49928Z" fill="#030D45"/>
</svg>
