<svg width="24" height="24" viewBox="0 0 24 24" fill="none" xmlns="http://www.w3.org/2000/svg">
<path fill-rule="evenodd" clip-rule="evenodd" d="M6.17007 6.17007C6.39682 5.94331 6.76447 5.94331 6.99122 6.17007L12 11.1788L17.0088 6.17007C17.2355 5.94331 17.6032 5.94331 17.8299 6.17007C18.0567 6.39682 18.0567 6.76447 17.8299 6.99122L12.8212 12L17.8299 17.0088C18.0567 17.2355 18.0567 17.6032 17.8299 17.8299C17.6032 18.0567 17.2355 18.0567 17.0088 17.8299L12 12.8212L6.99122 17.8299C6.76447 18.0567 6.39682 18.0567 6.17007 17.8299C5.94331 17.6032 5.94331 17.2355 6.17007 17.0088L11.1788 12L6.17007 6.99122C5.94331 6.76447 5.94331 6.39682 6.17007 6.17007Z" fill="#030D45"/>
</svg>
