<svg width="24" height="24" viewBox="0 0 24 24" fill="none" xmlns="http://www.w3.org/2000/svg">
<path d="M21.6907 4.8866C21.5876 3.54639 20.5567 2.41237 19.1134 2.30928C17.0515 2.10309 14.1649 2 12 2C9.83505 2 6.94845 2.10309 4.8866 2.30928C4.16495 2.30928 3.54639 2.61856 3.13402 3.13402C2.72165 3.64948 2.41237 4.16495 2.30928 4.8866C2.10309 6.94845 2 9.83505 2 12C2 14.1649 2.20619 17.0515 2.30928 19.1134C2.41237 20.4536 3.4433 21.5876 4.8866 21.6907C6.94845 21.8969 9.83505 22 12 22C14.1649 22 17.0515 21.7938 19.1134 21.6907C20.4536 21.5876 21.5876 20.5567 21.6907 19.1134C21.8969 17.0515 22 14.1649 22 12C22 9.83505 21.8969 6.94845 21.6907 4.8866ZM14.5773 13.5464C14.8866 13.8557 14.8866 14.3711 14.5773 14.6804C14.3711 14.7835 14.268 14.8866 14.0619 14.8866C13.8557 14.8866 13.6495 14.7835 13.5464 14.6804L12 13.134L10.4536 14.6804C10.1443 14.9897 9.62887 14.9897 9.31959 14.6804C9.01031 14.3711 9.01031 13.8557 9.31959 13.5464L10.866 12L9.31959 10.4536C9.01031 10.1443 9.01031 9.62887 9.31959 9.31959C9.62887 9.01031 10.1443 9.01031 10.4536 9.31959L12 10.866L13.5464 9.31959C13.8557 9.01031 14.3711 9.01031 14.6804 9.31959C14.9897 9.62887 14.9897 10.1443 14.6804 10.4536L13.134 12L14.5773 13.5464Z" fill="#030D45"/>
</svg>
