<svg width="20" height="20" viewBox="0 0 20 20" fill="none" xmlns="http://www.w3.org/2000/svg">
<path fill-rule="evenodd" clip-rule="evenodd" d="M6.39102 1.66602H13.616C16.441 1.66602 18.3327 3.64935 18.3327 6.59935V13.4085C18.3327 16.3502 16.441 18.3327 13.616 18.3327H6.39102C3.56602 18.3327 1.66602 16.3502 1.66602 13.4085V6.59935C1.66602 3.64935 3.56602 1.66602 6.39102 1.66602ZM12.5077 12.4993C12.791 12.2168 12.791 11.7585 12.5077 11.4752L11.0243 9.99185L12.5077 8.50768C12.791 8.22518 12.791 7.75852 12.5077 7.47518C12.2243 7.19102 11.766 7.19102 11.4743 7.47518L9.99935 8.95768L8.51602 7.47518C8.22435 7.19102 7.76602 7.19102 7.48268 7.47518C7.19935 7.75852 7.19935 8.22518 7.48268 8.50768L8.96602 9.99185L7.48268 11.4668C7.19935 11.7585 7.19935 12.2168 7.48268 12.4993C7.62435 12.641 7.81602 12.7168 7.99935 12.7168C8.19102 12.7168 8.37435 12.641 8.51602 12.4993L9.99935 11.0252L11.4827 12.4993C11.6243 12.6502 11.8077 12.7168 11.991 12.7168C12.1827 12.7168 12.366 12.641 12.5077 12.4993Z" fill="#A2AEBD"/>
</svg>
