<svg width="32" height="33" viewBox="0 0 32 33" fill="none" xmlns="http://www.w3.org/2000/svg">
<g clip-path="url(#clip0_4238_83216)">
<path fill-rule="evenodd" clip-rule="evenodd" d="M0 9.80078H1.875V5.11328C1.875 3.56241 3.13663 2.30078 4.6875 2.30078H9.375V0.425781H4.6875C2.10294 0.425781 0 2.52872 0 5.11328V9.80078ZM30.125 9.80078H32V5.11328C32 2.52872 29.8971 0.425781 27.3125 0.425781H22.625V2.30078H27.3125C28.8634 2.30078 30.125 3.56241 30.125 5.11328V9.80078ZM27.3125 32.4258H22.625V30.5508H27.3125C28.8634 30.5508 30.125 29.2892 30.125 27.7383V23.0508H32V27.7383C32 30.3228 29.8971 32.4258 27.3125 32.4258ZM4.6875 32.4258H9.375V30.5508H4.6875C3.13663 30.5508 1.875 29.2892 1.875 27.7383V23.0508H0V27.7383C0 30.3228 2.10294 32.4258 4.6875 32.4258ZM14.125 17.3633H13.1875V15.4883H14.125C14.6423 15.4883 15.0625 15.068 15.0625 14.5508V11.7383H16.9375V14.5508C16.9375 16.1017 15.6759 17.3633 14.125 17.3633ZM11.3125 9.86328H9.4375V13.6133H11.3125V9.86328ZM20.6875 9.86328H22.5625V13.6133H20.6875V9.86328ZM8.15134 21.0503C9.57041 21.769 12.414 22.9235 16.034 22.9235C18.3924 22.9235 21.0804 22.4337 23.9186 21.0145L24.7572 20.5952L23.9186 18.918L23.08 19.3373C16.6475 22.5554 11.0902 20.4387 8.99822 19.3776L8.08178 18.9189L7.31641 20.6273L8.15134 21.0503Z" fill="#7966FF"/>
</g>
<defs>
<clipPath id="clip0_4238_83216">
<rect width="32" height="32" fill="white" transform="translate(0 0.425781)"/>
</clipPath>
</defs>
</svg>
