<svg width="32" height="33" viewBox="0 0 32 33" fill="none" xmlns="http://www.w3.org/2000/svg">
<g clip-path="url(#clip0_4238_83219)">
<path fill-rule="evenodd" clip-rule="evenodd" d="M27.3076 6.84711C27.0663 6.84711 26.8263 6.76178 26.6343 6.58578C23.6916 3.90311 19.9156 2.42578 16.0009 2.42578C12.0863 2.42578 8.31027 3.90311 5.3676 6.58711C4.95827 6.95911 4.32627 6.92845 3.95427 6.52178C3.58227 6.11378 3.6116 5.48045 4.0196 5.10845C7.33294 2.08845 11.5876 0.425781 16.0009 0.425781C20.4143 0.425781 24.6689 2.08845 27.9823 5.10845C28.3903 5.48045 28.4196 6.11245 28.0476 6.52178C27.8503 6.73778 27.5796 6.84711 27.3076 6.84711ZM29.0005 13.3825C28.6791 13.3825 28.3618 13.2278 28.1698 12.9398C25.3938 8.80651 20.8445 6.33851 16.0005 6.33851C11.1565 6.33851 6.60714 8.80651 3.83114 12.9398C3.52314 13.3998 2.90048 13.5212 2.44314 13.2132C1.98448 12.9052 1.86181 12.2838 2.16981 11.8252C5.31781 7.13851 10.4885 4.33984 16.0005 4.33984C21.5125 4.33984 26.6831 7.13851 29.8311 11.8265C30.1391 12.2852 30.0178 12.9065 29.5578 13.2145C29.3871 13.3278 29.1938 13.3825 29.0005 13.3825ZM12.1317 32.1294C12.3277 32.3267 12.5851 32.4254 12.8424 32.4254C13.0971 32.4254 13.3517 32.3294 13.5464 32.1361C13.9397 31.7467 13.9424 31.1134 13.5531 30.7214C13.5051 30.6734 8.78906 25.8654 8.78906 21.6427C8.78906 17.5187 12.0237 14.1641 16.0011 14.1641C19.9784 14.1641 23.2131 17.5187 23.2131 21.6427C23.2131 22.1947 23.6611 22.6427 24.2131 22.6427C24.7651 22.6427 25.2131 22.1947 25.2131 21.6427C25.2131 16.4161 21.0811 12.1641 16.0011 12.1641C10.9211 12.1641 6.78906 16.4161 6.78906 21.6427C6.78906 26.6787 11.9131 31.9094 12.1317 32.1294ZM19.16 32.4249C16.7547 32.4249 11.1787 27.8489 10.6387 22.7529C10.448 20.9516 11.0213 19.1089 12.1707 17.8236C13.1707 16.7063 14.5213 16.0863 15.9733 16.0783H16.0013C17.4173 16.0783 18.756 16.6343 19.7747 17.6463C20.8387 18.7036 21.424 20.1236 21.424 21.6436V22.2956C21.424 23.9023 22.6747 25.2089 24.2133 25.2089C25.752 25.2089 27.004 23.9023 27.004 22.2956V22.0676C27.004 15.8409 22.4933 10.6609 16.7347 10.2769C13.7333 10.0729 10.852 11.1103 8.62933 13.1876C6.32267 15.3449 5 18.4276 5 21.6436C5 24.2889 5.896 26.8663 7.52267 28.9009C7.86666 29.3329 7.79733 29.9609 7.36533 30.3063C6.93467 30.6516 6.30533 30.5823 5.96 30.1489C4.052 27.7609 3 24.7396 3 21.6423C3 17.8743 4.55467 14.2596 7.26267 11.7263C9.89333 9.26494 13.3053 8.03961 16.8667 8.27961C23.672 8.73427 29.004 14.7903 29.004 22.0663V22.2943C29.004 25.0036 26.8547 27.2076 24.2133 27.2076C21.572 27.2076 19.424 25.0036 19.424 22.2943V21.6423C19.424 20.6583 19.048 19.7436 18.3653 19.0636C17.7253 18.4263 16.8867 18.0769 16.0027 18.0769H15.984C14.8573 18.0823 14.0987 18.6676 13.6613 19.1569C12.8813 20.0276 12.4947 21.2943 12.6267 22.5423C13.068 26.6996 17.8453 30.4263 19.16 30.4263C19.712 30.4263 20.16 30.8743 20.16 31.4263C20.16 31.9783 19.712 32.4249 19.16 32.4249ZM14.9219 20.9902C14.9219 26.0956 19.2912 30.4689 22.8699 30.4689C23.4219 30.4689 23.8699 30.0209 23.8699 29.4689C23.8699 28.9169 23.4219 28.4689 22.8699 28.4689C20.2486 28.4689 16.9219 24.9476 16.9219 20.9902C16.9219 20.4382 16.4739 19.9902 15.9219 19.9902C15.3699 19.9902 14.9219 20.4382 14.9219 20.9902Z" fill="#7966FF"/>
</g>
<defs>
<clipPath id="clip0_4238_83219">
<rect width="32" height="32" fill="white" transform="translate(0 0.425781)"/>
</clipPath>
</defs>
</svg>
