<svg width="20" height="21" viewBox="0 0 20 21" fill="none" xmlns="http://www.w3.org/2000/svg">
<path fill-rule="evenodd" clip-rule="evenodd" d="M14.6016 6.73691V8.01469C16.0369 8.4627 17.0827 9.76201 17.0827 11.3139V15.428C17.0827 17.3492 15.4899 18.9069 13.5262 18.9069H6.47335C4.50881 18.9069 2.91602 17.3492 2.91602 15.428V11.3139C2.91602 9.76201 3.96264 8.4627 5.39709 8.01469V6.73691C5.40556 4.25256 7.46324 2.24023 9.98665 2.24023C12.5439 2.24023 14.6016 4.25256 14.6016 6.73691ZM10.0036 3.68944C11.7226 3.68944 13.1197 5.05583 13.1197 6.73691V7.83499H6.87896V6.72034C6.88742 5.04755 8.28461 3.68944 10.0036 3.68944ZM10.7403 14.286C10.7403 14.6918 10.41 15.0148 9.99511 15.0148C9.58866 15.0148 9.25841 14.6918 9.25841 14.286V12.4476C9.25841 12.0501 9.58866 11.7271 9.99511 11.7271C10.41 11.7271 10.7403 12.0501 10.7403 12.4476V14.286Z" fill="#A2AEBD"/>
</svg>
