<svg width="101" height="30" viewBox="0 0 101 30" fill="none" xmlns="http://www.w3.org/2000/svg">
<path d="M1.8674 16.8701C2.7903 16.8701 3.53873 16.4512 3.53873 15.9345V14.0625C3.53873 13.5459 2.7903 13.127 1.8674 13.127C0.943735 13.127 0.195312 13.5459 0.195312 14.0625V15.9345C0.195312 16.4512 0.943735 16.8701 1.8674 16.8701Z" fill="#7966FF"/>
<path d="M8.55435 16.8706V13.1274C8.55435 12.6104 7.80593 12.1914 6.88226 12.1914C5.95936 12.1914 5.21094 12.6104 5.21094 13.1274V16.8706C5.21094 17.3876 5.95936 17.8066 6.88226 17.8066C7.80593 17.8066 8.55435 17.3876 8.55435 16.8706Z" fill="#7966FF"/>
<path d="M28.6149 16.8706V13.1274C28.6149 12.6104 27.8665 12.1914 26.9436 12.1914C26.0199 12.1914 25.2715 12.6104 25.2715 13.1274V16.8706C25.2715 17.3876 26.0199 17.8066 26.9436 17.8066C27.8665 17.8066 28.6149 17.3876 28.6149 16.8706Z" fill="#7966FF"/>
<path d="M15.2419 18.7427V11.2563C15.2419 10.7393 14.4934 10.3203 13.5698 10.3203C12.6469 10.3203 11.8984 10.7393 11.8984 11.2563V18.7427C11.8984 19.2597 12.6469 19.6787 13.5698 19.6787C14.4934 19.6787 15.2419 19.2597 15.2419 18.7427Z" fill="#7966FF"/>
<path d="M21.9274 18.7427V11.2563C21.9274 10.7393 21.179 10.3203 20.2553 10.3203C19.3324 10.3203 18.584 10.7393 18.584 11.2563V18.7427C18.584 19.2597 19.3324 19.6787 20.2553 19.6787C21.179 19.6787 21.9274 19.2597 21.9274 18.7427Z" fill="#7966FF"/>
<path d="M35.3004 20.6147V9.38523C35.3004 8.86817 34.552 8.44922 33.6291 8.44922C32.7055 8.44922 31.957 8.86817 31.957 9.38523V20.6147C31.957 21.1318 32.7055 21.5508 33.6291 21.5508C34.552 21.5508 35.3004 21.1318 35.3004 20.6147Z" fill="#7966FF"/>
<path d="M41.9879 22.4868V7.51413C41.9879 6.99708 41.2395 6.57812 40.3166 6.57812C39.393 6.57812 38.6445 6.99708 38.6445 7.51413V22.4868C38.6445 23.0039 39.393 23.4228 40.3166 23.4228C41.2395 23.4228 41.9879 23.0039 41.9879 22.4868Z" fill="#7966FF"/>
<path d="M48.6754 28.1011V1.8989C48.6754 1.38184 47.927 0.962891 47.0041 0.962891C46.0805 0.962891 45.332 1.38184 45.332 1.8989V28.1011C45.332 28.6182 46.0805 29.0371 47.0041 29.0371C47.927 29.0371 48.6754 28.6182 48.6754 28.1011Z" fill="#7966FF"/>
<path d="M98.8276 13.127C97.9047 13.127 97.1562 13.5459 97.1562 14.0625V15.9345C97.1562 16.4512 97.9047 16.8701 98.8276 16.8701C99.7512 16.8701 100.5 16.4512 100.5 15.9345V14.0625C100.5 13.5459 99.7512 13.127 98.8276 13.127Z" fill="#7966FF"/>
<path d="M95.484 16.8706V13.1274C95.484 12.6104 94.7356 12.1914 93.8127 12.1914C92.889 12.1914 92.1406 12.6104 92.1406 13.1274V16.8706C92.1406 17.3876 92.889 17.8066 93.8127 17.8066C94.7356 17.8066 95.484 17.3876 95.484 16.8706Z" fill="#7966FF"/>
<path d="M75.4235 16.8706V13.1274C75.4235 12.6104 74.6751 12.1914 73.7514 12.1914C72.8285 12.1914 72.0801 12.6104 72.0801 13.1274V16.8706C72.0801 17.3876 72.8285 17.8066 73.7514 17.8066C74.6751 17.8066 75.4235 17.3876 75.4235 16.8706Z" fill="#7966FF"/>
<path d="M88.7965 18.7427V11.2563C88.7965 10.7393 88.0481 10.3203 87.1252 10.3203C86.2015 10.3203 85.4531 10.7393 85.4531 11.2563V18.7427C85.4531 19.2597 86.2015 19.6787 87.1252 19.6787C88.0481 19.6787 88.7965 19.2597 88.7965 18.7427Z" fill="#7966FF"/>
<path d="M82.111 18.7427V11.2563C82.111 10.7393 81.3626 10.3203 80.4397 10.3203C79.516 10.3203 78.7676 10.7393 78.7676 11.2563V18.7427C78.7676 19.2597 79.516 19.6787 80.4397 19.6787C81.3626 19.6787 82.111 19.2597 82.111 18.7427Z" fill="#7966FF"/>
<path d="M68.736 20.6147V9.38523C68.736 8.86817 67.9876 8.44922 67.0639 8.44922C66.141 8.44922 65.3926 8.86817 65.3926 9.38523V20.6147C65.3926 21.1318 66.141 21.5508 67.0639 21.5508C67.9876 21.5508 68.736 21.1318 68.736 20.6147Z" fill="#7966FF"/>
<path d="M62.0504 22.4868V7.51413C62.0504 6.99708 61.302 6.57812 60.3784 6.57812C59.4555 6.57812 58.707 6.99708 58.707 7.51413V22.4868C58.707 23.0039 59.4555 23.4228 60.3784 23.4228C61.302 23.4228 62.0504 23.0039 62.0504 22.4868Z" fill="#7966FF"/>
<path d="M55.3629 28.1011V1.8989C55.3629 1.38184 54.6145 0.962891 53.6909 0.962891C52.768 0.962891 52.0195 1.38184 52.0195 1.8989V28.1011C52.0195 28.6182 52.768 29.0371 53.6909 29.0371C54.6145 29.0371 55.3629 28.6182 55.3629 28.1011Z" fill="#7966FF"/>
</svg>
