<svg width="56" height="56" viewBox="0 0 56 56" fill="none" xmlns="http://www.w3.org/2000/svg">
<g clip-path="url(#clip0_11934_156575)">
<path d="M50.9857 44.8294C50.0316 45.3065 49.0775 45.7984 48.1384 46.3202C45.6637 47.6619 43.2337 49.093 40.8485 50.6136C40.282 50.9515 39.7155 51.3093 39.149 51.687C38.928 51.8402 38.7187 52.0097 38.5228 52.1939H1V50.6882C1.00021 44.8416 3.02186 39.1749 6.72235 34.6485C10.4228 30.1221 15.5745 27.0143 21.3044 25.8518C18.4193 24.6828 16.0305 22.5468 14.5472 19.81C13.0639 17.0731 12.5785 13.9056 13.174 10.8502C13.7696 7.7947 15.4091 5.0414 17.8116 3.06193C20.2141 1.08245 23.2302 0 26.3432 0C29.4562 0 32.4723 1.08245 34.8748 3.06193C37.2774 5.0414 38.9168 7.7947 39.5124 10.8502C40.1079 13.9056 39.6225 17.0731 38.1392 19.81C36.6559 22.5468 34.2671 24.6828 31.382 25.8518C36.1194 26.8158 40.4822 29.1148 43.9557 32.4773C47.4293 35.8399 49.8685 40.1258 50.9857 44.8294Z" fill="#505078"/>
<path d="M42.7434 31.4414C40.3848 31.7548 38.1171 32.555 36.084 33.791C34.051 35.0271 32.297 36.6721 30.9332 38.6217C29.5694 40.5714 28.6256 42.7832 28.1617 45.1168C27.6977 47.4505 27.7238 49.8551 28.2381 52.1781H38.5245C38.7183 51.9992 48.14 46.3045 48.14 46.3045C49.0792 45.7976 50.0333 45.3056 50.9874 44.8137C49.7194 39.598 46.8337 34.9172 42.7434 31.4414Z" fill="#323250"/>
<path d="M42.7415 52.1784C47.6815 52.1784 51.6862 48.1737 51.6862 43.2337C51.6862 38.2937 47.6815 34.2891 42.7415 34.2891C37.8015 34.2891 33.7969 38.2937 33.7969 43.2337C33.7969 48.1737 37.8015 52.1784 42.7415 52.1784Z" fill="#640000"/>
<path d="M42.7426 31.3086C40.3838 31.3086 38.078 32.0081 36.1168 33.3185C34.1555 34.629 32.6269 36.4916 31.7242 38.6708C30.8216 40.8501 30.5854 43.248 31.0456 45.5615C31.5057 47.875 32.6416 50 34.3095 51.6679C35.9774 53.3358 38.1025 54.4717 40.4159 54.9319C42.7294 55.392 45.1274 55.1559 47.3066 54.2532C49.4858 53.3505 51.3484 51.8219 52.6589 49.8607C53.9694 47.8994 54.6688 45.5936 54.6688 43.2348C54.6688 40.0718 53.4123 37.0383 51.1757 34.8017C48.9391 32.5651 45.9057 31.3086 42.7426 31.3086ZM47.528 45.9033C47.6677 46.0419 47.7786 46.2068 47.8543 46.3884C47.93 46.5701 47.969 46.7649 47.969 46.9617C47.969 47.1585 47.93 47.3534 47.8543 47.5351C47.7786 47.7167 47.6677 47.8816 47.528 48.0202C47.3894 48.1599 47.2245 48.2708 47.0429 48.3465C46.8612 48.4222 46.6664 48.4612 46.4696 48.4612C46.2728 48.4612 46.0779 48.4222 45.8963 48.3465C45.7146 48.2708 45.5497 48.1599 45.4111 48.0202L42.7426 45.3368L40.0741 48.0202C39.9355 48.1599 39.7707 48.2708 39.589 48.3465C39.4073 48.4222 39.2125 48.4612 39.0157 48.4612C38.8189 48.4612 38.624 48.4222 38.4424 48.3465C38.2607 48.2708 38.0958 48.1599 37.9572 48.0202C37.8175 47.8816 37.7066 47.7167 37.6309 47.5351C37.5552 47.3534 37.5163 47.1585 37.5163 46.9617C37.5163 46.7649 37.5552 46.5701 37.6309 46.3884C37.7066 46.2068 37.8175 46.0419 37.9572 45.9033L40.6406 43.2348L37.9572 40.5663C37.8182 40.4273 37.708 40.2623 37.6327 40.0807C37.5575 39.8991 37.5188 39.7044 37.5188 39.5079C37.5188 39.3113 37.5575 39.1166 37.6327 38.935C37.708 38.7534 37.8182 38.5884 37.9572 38.4494C38.0962 38.3104 38.2612 38.2002 38.4429 38.1249C38.6245 38.0497 38.8191 38.011 39.0157 38.011C39.2123 38.011 39.4069 38.0497 39.5885 38.1249C39.7701 38.2002 39.9351 38.3104 40.0741 38.4494L42.7426 41.1328L45.4111 38.4494C45.5501 38.3104 45.7151 38.2002 45.8967 38.1249C46.0783 38.0497 46.273 38.011 46.4696 38.011C46.6661 38.011 46.8608 38.0497 47.0424 38.1249C47.224 38.2002 47.389 38.3104 47.528 38.4494C47.667 38.5884 47.7773 38.7534 47.8525 38.935C47.9277 39.1166 47.9664 39.3113 47.9664 39.5079C47.9664 39.7044 47.9277 39.8991 47.8525 40.0807C47.7773 40.2623 47.667 40.4273 47.528 40.5663L44.8446 43.2348L47.528 45.9033Z" fill="#E0699A"/>
</g>
<defs>
<clipPath id="clip0_11934_156575">
<rect width="56" height="56" fill="white"/>
</clipPath>
</defs>
</svg>
