<svg width="20" height="21" viewBox="0 0 20 21" fill="none" xmlns="http://www.w3.org/2000/svg">
<path d="M10.0007 10.4035C12.2664 10.4035 14.1032 8.57609 14.1032 6.32187C14.1032 4.06764 12.2664 2.24023 10.0007 2.24023C7.73487 2.24023 5.89809 4.06764 5.89809 6.32187C5.89809 8.57609 7.73487 10.4035 10.0007 10.4035Z" fill="#A2AEBD"/>
<path d="M12.1374 12.1043H7.8639C5.38527 12.1043 3.33398 14.1451 3.33398 16.6111C3.33398 17.2063 3.59039 17.7165 4.10322 17.9716C4.87245 18.3968 6.58185 18.907 10.0007 18.907C13.4195 18.907 15.1289 18.3968 15.8981 17.9716C16.3254 17.7165 16.6673 17.2063 16.6673 16.6111C16.6673 14.06 14.616 12.1043 12.1374 12.1043Z" fill="#A2AEBD"/>
</svg>
